<svg width="114" height="83" viewBox="0 0 114 83" fill="none" xmlns="http://www.w3.org/2000/svg">
<path d="M68.8496 42.3818C68.8496 36.5811 68.0618 31.2458 66.4863 26.376C64.9466 21.5062 62.7982 17.2988 60.041 13.7539C57.3197 10.209 54.0791 7.45182 50.3193 5.48242C46.5954 3.51302 42.5312 2.52832 38.127 2.52832C33.7585 2.52832 29.7122 3.51302 25.9883 5.48242C22.3001 7.45182 19.0954 10.209 16.374 13.7539C13.6527 17.2988 11.5221 21.5062 9.98242 26.376C8.47852 31.2458 7.72656 36.5811 7.72656 42.3818C7.72656 48.1826 8.49642 53.5179 10.0361 58.3877C11.5758 63.2575 13.6885 67.4648 16.374 71.0098C19.0954 74.5547 22.318 77.3298 26.042 79.335C29.766 81.3044 33.7943 82.2891 38.127 82.2891C42.5312 82.2891 46.5954 81.3044 50.3193 79.335C54.0791 77.3298 57.3197 74.5547 60.041 71.0098C62.7982 67.4648 64.9466 63.2575 66.4863 58.3877C68.0618 53.5179 68.8496 48.1826 68.8496 42.3818ZM20.2412 42.3818C20.2412 36.6885 20.5993 31.5322 21.3154 26.9131C22.0316 22.2939 23.1237 18.3551 24.5918 15.0967C26.0957 11.8024 27.9577 9.26009 30.1777 7.46973C32.4336 5.67936 35.0833 4.78418 38.127 4.78418C41.2064 4.78418 43.874 5.67936 46.1299 7.46973C48.4215 9.26009 50.3193 11.8024 51.8232 15.0967C53.3271 18.3551 54.4372 22.3118 55.1533 26.9668C55.9053 31.5859 56.2812 36.7243 56.2812 42.3818C56.2812 48.0394 55.9053 53.1956 55.1533 57.8506C54.4372 62.4697 53.3271 66.4264 51.8232 69.7207C50.3193 72.9792 48.4215 75.5036 46.1299 77.2939C43.874 79.0843 41.2064 79.9795 38.127 79.9795C35.0833 79.9795 32.4336 79.0843 30.1777 77.2939C27.9577 75.5036 26.0957 72.9792 24.5918 69.7207C23.1237 66.4264 22.0316 62.4697 21.3154 57.8506C20.5993 53.1956 20.2412 48.0394 20.2412 42.3818ZM78.1416 14.7207V15.4727H89.4746V74.9844L80.7197 79.9795V81H109.616V79.9795L100.861 74.9844V2.36719H100.056L78.1416 14.7207Z" fill="#F8AD4E" fill-opacity="0.1"/>
<path d="M28.7344 36.1484C28.7344 33.6172 28.3906 31.2891 27.7031 29.1641C27.0312 27.0391 26.0938 25.2031 24.8906 23.6562C23.7031 22.1094 22.2891 20.9062 20.6484 20.0469C19.0234 19.1875 17.25 18.7578 15.3281 18.7578C13.4219 18.7578 11.6562 19.1875 10.0312 20.0469C8.42188 20.9062 7.02344 22.1094 5.83594 23.6562C4.64844 25.2031 3.71875 27.0391 3.04688 29.1641C2.39062 31.2891 2.0625 33.6172 2.0625 36.1484C2.0625 38.6797 2.39844 41.0078 3.07031 43.1328C3.74219 45.2578 4.66406 47.0938 5.83594 48.6406C7.02344 50.1875 8.42969 51.3984 10.0547 52.2734C11.6797 53.1328 13.4375 53.5625 15.3281 53.5625C17.25 53.5625 19.0234 53.1328 20.6484 52.2734C22.2891 51.3984 23.7031 50.1875 24.8906 48.6406C26.0938 47.0938 27.0312 45.2578 27.7031 43.1328C28.3906 41.0078 28.7344 38.6797 28.7344 36.1484ZM7.52344 36.1484C7.52344 33.6641 7.67969 31.4141 7.99219 29.3984C8.30469 27.3828 8.78125 25.6641 9.42188 24.2422C10.0781 22.8047 10.8906 21.6953 11.8594 20.9141C12.8438 20.1328 14 19.7422 15.3281 19.7422C16.6719 19.7422 17.8359 20.1328 18.8203 20.9141C19.8203 21.6953 20.6484 22.8047 21.3047 24.2422C21.9609 25.6641 22.4453 27.3906 22.7578 29.4219C23.0859 31.4375 23.25 33.6797 23.25 36.1484C23.25 38.6172 23.0859 40.8672 22.7578 42.8984C22.4453 44.9141 21.9609 46.6406 21.3047 48.0781C20.6484 49.5 19.8203 50.6016 18.8203 51.3828C17.8359 52.1641 16.6719 52.5547 15.3281 52.5547C14 52.5547 12.8438 52.1641 11.8594 51.3828C10.8906 50.6016 10.0781 49.5 9.42188 48.0781C8.78125 46.6406 8.30469 44.9141 7.99219 42.8984C7.67969 40.8672 7.52344 38.6172 7.52344 36.1484ZM32.7891 24.0781V24.4062H37.7344V50.375L33.9141 52.5547V53H46.5234V52.5547L42.7031 50.375V18.6875H42.3516L32.7891 24.0781Z" fill="#F8AD4E"/>
</svg>
