<svg width="154" height="83" viewBox="0 0 154 83" fill="none" xmlns="http://www.w3.org/2000/svg">
<path d="M89.8496 42.3818C89.8496 36.5811 89.0618 31.2458 87.4863 26.376C85.9466 21.5062 83.7982 17.2988 81.041 13.7539C78.3197 10.209 75.0791 7.45182 71.3193 5.48242C67.5954 3.51302 63.5312 2.52832 59.127 2.52832C54.7585 2.52832 50.7122 3.51302 46.9883 5.48242C43.3001 7.45182 40.0954 10.209 37.374 13.7539C34.6527 17.2988 32.5221 21.5062 30.9824 26.376C29.4785 31.2458 28.7266 36.5811 28.7266 42.3818C28.7266 48.1826 29.4964 53.5179 31.0361 58.3877C32.5758 63.2575 34.6885 67.4648 37.374 71.0098C40.0954 74.5547 43.318 77.3298 47.042 79.335C50.766 81.3044 54.7943 82.2891 59.127 82.2891C63.5312 82.2891 67.5954 81.3044 71.3193 79.335C75.0791 77.3298 78.3197 74.5547 81.041 71.0098C83.7982 67.4648 85.9466 63.2575 87.4863 58.3877C89.0618 53.5179 89.8496 48.1826 89.8496 42.3818ZM41.2412 42.3818C41.2412 36.6885 41.5993 31.5322 42.3154 26.9131C43.0316 22.2939 44.1237 18.3551 45.5918 15.0967C47.0957 11.8024 48.9577 9.26009 51.1777 7.46973C53.4336 5.67936 56.0833 4.78418 59.127 4.78418C62.2064 4.78418 64.874 5.67936 67.1299 7.46973C69.4215 9.26009 71.3193 11.8024 72.8232 15.0967C74.3271 18.3551 75.4372 22.3118 76.1533 26.9668C76.9053 31.5859 77.2812 36.7243 77.2812 42.3818C77.2812 48.0394 76.9053 53.1956 76.1533 57.8506C75.4372 62.4697 74.3271 66.4264 72.8232 69.7207C71.3193 72.9792 69.4215 75.5036 67.1299 77.2939C64.874 79.0843 62.2064 79.9795 59.127 79.9795C56.0833 79.9795 53.4336 79.0843 51.1777 77.2939C48.9577 75.5036 47.0957 72.9792 45.5918 69.7207C44.1237 66.4264 43.0316 62.4697 42.3154 57.8506C41.5993 53.1956 41.2412 48.0394 41.2412 42.3818ZM99.6787 27.3428C99.8936 26.6624 100.234 25.6419 100.699 24.2812C101.201 22.8848 101.845 21.3451 102.633 19.6621C103.421 17.9792 104.352 16.2604 105.426 14.5059C106.536 12.7513 107.807 11.1579 109.239 9.72559C110.707 8.29329 112.354 7.11165 114.181 6.18066C116.043 5.24967 118.084 4.78418 120.304 4.78418C122.631 4.78418 124.708 5.19596 126.534 6.01953C128.396 6.80729 129.954 7.97103 131.207 9.51074C132.496 11.0146 133.463 12.8587 134.107 15.043C134.788 17.1914 135.128 19.6084 135.128 22.2939C135.128 25.9821 134.322 29.8135 132.711 33.7881C131.1 37.7627 128.683 41.988 125.46 46.4639C122.237 50.904 118.227 55.6305 113.429 60.6436C108.631 65.6566 103.062 71.0635 96.7246 76.8643L97.208 81H145.44L148.663 58.334L148.126 58.2803L136.793 72.1914H106.661C112.999 67.071 118.674 62.3802 123.688 58.1191C128.736 53.8223 132.997 49.7402 136.471 45.873C139.98 41.9701 142.647 38.1387 144.474 34.3789C146.336 30.6191 147.267 26.6982 147.267 22.6162C147.267 19.6084 146.712 16.8691 145.602 14.3984C144.492 11.8919 142.844 9.76139 140.66 8.00684C138.476 6.25228 135.755 4.8916 132.496 3.9248C129.238 2.95801 125.46 2.47461 121.163 2.47461C119.229 2.51042 117.403 2.61784 115.685 2.79688C113.966 2.9401 112.265 3.19076 110.582 3.54883C108.899 3.9069 107.198 4.3724 105.479 4.94531C103.797 5.48242 101.988 6.16276 100.055 6.98633L98.6582 27.3428H99.6787Z" fill="#F8AD4E" fill-opacity="0.1"/>
<path d="M28.7344 39.1487C28.7344 36.6174 28.3906 34.2893 27.7031 32.1643C27.0312 30.0393 26.0938 28.2034 24.8906 26.6565C23.7031 25.1096 22.2891 23.9065 20.6484 23.0471C19.0234 22.1877 17.25 21.7581 15.3281 21.7581C13.4219 21.7581 11.6562 22.1877 10.0312 23.0471C8.42188 23.9065 7.02344 25.1096 5.83594 26.6565C4.64844 28.2034 3.71875 30.0393 3.04688 32.1643C2.39062 34.2893 2.0625 36.6174 2.0625 39.1487C2.0625 41.6799 2.39844 44.0081 3.07031 46.1331C3.74219 48.2581 4.66406 50.094 5.83594 51.6409C7.02344 53.1877 8.42969 54.3987 10.0547 55.2737C11.6797 56.1331 13.4375 56.5627 15.3281 56.5627C17.25 56.5627 19.0234 56.1331 20.6484 55.2737C22.2891 54.3987 23.7031 53.1877 24.8906 51.6409C26.0938 50.094 27.0312 48.2581 27.7031 46.1331C28.3906 44.0081 28.7344 41.6799 28.7344 39.1487ZM7.52344 39.1487C7.52344 36.6643 7.67969 34.4143 7.99219 32.3987C8.30469 30.3831 8.78125 28.6643 9.42188 27.2424C10.0781 25.8049 10.8906 24.6956 11.8594 23.9143C12.8438 23.1331 14 22.7424 15.3281 22.7424C16.6719 22.7424 17.8359 23.1331 18.8203 23.9143C19.8203 24.6956 20.6484 25.8049 21.3047 27.2424C21.9609 28.6643 22.4453 30.3909 22.7578 32.4221C23.0859 34.4377 23.25 36.6799 23.25 39.1487C23.25 41.6174 23.0859 43.8674 22.7578 45.8987C22.4453 47.9143 21.9609 49.6409 21.3047 51.0784C20.6484 52.5002 19.8203 53.6018 18.8203 54.3831C17.8359 55.1643 16.6719 55.5549 15.3281 55.5549C14 55.5549 12.8438 55.1643 11.8594 54.3831C10.8906 53.6018 10.0781 52.5002 9.42188 51.0784C8.78125 49.6409 8.30469 47.9143 7.99219 45.8987C7.67969 43.8674 7.52344 41.6174 7.52344 39.1487ZM33.0234 32.5862C33.1172 32.2893 33.2656 31.844 33.4688 31.2502C33.6875 30.6409 33.9688 29.969 34.3125 29.2346C34.6562 28.5002 35.0625 27.7502 35.5312 26.9846C36.0156 26.219 36.5703 25.5237 37.1953 24.8987C37.8359 24.2737 38.5547 23.7581 39.3516 23.3518C40.1641 22.9456 41.0547 22.7424 42.0234 22.7424C43.0391 22.7424 43.9453 22.9221 44.7422 23.2815C45.5547 23.6252 46.2344 24.1331 46.7812 24.8049C47.3438 25.4612 47.7656 26.2659 48.0469 27.219C48.3438 28.1565 48.4922 29.2112 48.4922 30.3831C48.4922 31.9924 48.1406 33.6643 47.4375 35.3987C46.7344 37.1331 45.6797 38.9768 44.2734 40.9299C42.8672 42.8674 41.1172 44.9299 39.0234 47.1174C36.9297 49.3049 34.5 51.6643 31.7344 54.1956L31.9453 56.0002H52.9922L54.3984 46.1096L54.1641 46.0862L49.2188 52.1565H36.0703C38.8359 49.9221 41.3125 47.8752 43.5 46.0159C45.7031 44.1409 47.5625 42.3596 49.0781 40.6721C50.6094 38.969 51.7734 37.2971 52.5703 35.6565C53.3828 34.0159 53.7891 32.3049 53.7891 30.5237C53.7891 29.2112 53.5469 28.0159 53.0625 26.9377C52.5781 25.844 51.8594 24.9143 50.9062 24.1487C49.9531 23.3831 48.7656 22.7893 47.3438 22.3674C45.9219 21.9456 44.2734 21.7346 42.3984 21.7346C41.5547 21.7502 40.7578 21.7971 40.0078 21.8752C39.2578 21.9377 38.5156 22.0471 37.7812 22.2034C37.0469 22.3596 36.3047 22.5627 35.5547 22.8127C34.8203 23.0471 34.0312 23.344 33.1875 23.7034L32.5781 32.5862H33.0234Z" fill="#F8AD4E"/>
</svg>
