<svg width="144" height="83" viewBox="0 0 144 83" fill="none" xmlns="http://www.w3.org/2000/svg">
<path d="M77.8496 42.3816C77.8496 36.5808 77.0618 31.2455 75.4863 26.3757C73.9466 21.5059 71.7982 17.2986 69.041 13.7537C66.3197 10.2087 63.0791 7.45158 59.3193 5.48218C55.5954 3.51278 51.5312 2.52808 47.127 2.52808C42.7585 2.52808 38.7122 3.51278 34.9883 5.48218C31.3001 7.45158 28.0954 10.2087 25.374 13.7537C22.6527 17.2986 20.5221 21.5059 18.9824 26.3757C17.4785 31.2455 16.7266 36.5808 16.7266 42.3816C16.7266 48.1824 17.4964 53.5177 19.0361 58.3875C20.5758 63.2572 22.6885 67.4646 25.374 71.0095C28.0954 74.5544 31.318 77.3295 35.042 79.3347C38.766 81.3041 42.7943 82.2888 47.127 82.2888C51.5312 82.2888 55.5954 81.3041 59.3193 79.3347C63.0791 77.3295 66.3197 74.5544 69.041 71.0095C71.7982 67.4646 73.9466 63.2572 75.4863 58.3875C77.0618 53.5177 77.8496 48.1824 77.8496 42.3816ZM29.2412 42.3816C29.2412 36.6882 29.5993 31.532 30.3154 26.9128C31.0316 22.2937 32.1237 18.3549 33.5918 15.0964C35.0957 11.8022 36.9577 9.25985 39.1777 7.46948C41.4336 5.67912 44.0833 4.78394 47.127 4.78394C50.2064 4.78394 52.874 5.67912 55.1299 7.46948C57.4215 9.25985 59.3193 11.8022 60.8232 15.0964C62.3271 18.3549 63.4372 22.3116 64.1533 26.9666C64.9053 31.5857 65.2812 36.724 65.2812 42.3816C65.2812 48.0391 64.9053 53.1954 64.1533 57.8503C63.4372 62.4695 62.3271 66.4262 60.8232 69.7205C59.3193 72.9789 57.4215 75.5033 55.1299 77.2937C52.874 79.0841 50.2064 79.9792 47.127 79.9792C44.0833 79.9792 41.4336 79.0841 39.1777 77.2937C36.9577 75.5033 35.0957 72.9789 33.5918 69.7205C32.1237 66.4262 31.0316 62.4695 30.3154 57.8503C29.5993 53.1954 29.2412 48.0391 29.2412 42.3816ZM103.094 41.9519C106.531 42.31 109.7 42.9724 112.601 43.9392C115.501 44.906 117.99 46.213 120.066 47.8601C122.179 49.5072 123.808 51.5304 124.954 53.9294C126.136 56.2927 126.727 59.1036 126.727 62.3621C126.727 64.9044 126.351 67.2498 125.599 69.3982C124.847 71.5466 123.737 73.4086 122.269 74.9841C120.8 76.5597 118.992 77.795 116.844 78.6902C114.695 79.5496 112.243 79.9792 109.485 79.9792C106.478 79.9792 103.846 79.3347 101.59 78.0457C99.3698 76.7208 97.4183 75.002 95.7354 72.8894C94.0524 70.741 92.5843 68.324 91.3311 65.6384C90.0778 62.9171 88.9678 60.1599 88.001 57.3669H86.9805L88.377 77.4548C89.3079 78.0636 90.5254 78.6544 92.0293 79.2273C93.5332 79.8002 95.1982 80.3194 97.0244 80.7849C98.8864 81.2504 100.856 81.6085 102.933 81.8591C105.009 82.1456 107.068 82.2888 109.109 82.2888C113.406 82.2888 117.327 81.7696 120.872 80.7312C124.417 79.6928 127.461 78.2247 130.003 76.3269C132.581 74.3933 134.568 72.1016 135.965 69.4519C137.397 66.7664 138.113 63.8123 138.113 60.5896C138.113 57.725 137.594 55.1111 136.556 52.7478C135.517 50.3845 134.049 48.2898 132.151 46.4636C130.289 44.6016 128.034 43.0261 125.384 41.7371C122.734 40.448 119.816 39.4633 116.629 38.783C122.788 37.2791 127.514 34.9695 130.809 31.8542C134.103 28.7032 135.75 24.9613 135.75 20.6287C135.75 18.0147 135.195 15.5977 134.085 13.3777C133.011 11.1576 131.435 9.24194 129.358 7.63062C127.317 6.01929 124.811 4.76603 121.839 3.87085C118.867 2.93986 115.501 2.47437 111.741 2.47437C109.342 2.47437 107.104 2.61759 105.027 2.90405C102.951 3.1547 101.017 3.49487 99.2266 3.92456C97.472 4.35425 95.8607 4.83765 94.3926 5.37476C92.9245 5.91187 91.5996 6.44897 90.418 6.98608L89.0215 27.3425H89.9883C90.5254 25.8744 91.1162 24.2989 91.7607 22.616C92.4053 20.933 93.1572 19.268 94.0166 17.6208C94.876 15.9379 95.8428 14.3266 96.917 12.7869C98.027 11.2113 99.2803 9.83276 100.677 8.65112C102.073 7.46948 103.649 6.53849 105.403 5.85815C107.158 5.14201 109.127 4.78394 111.312 4.78394C113.388 4.78394 115.215 5.19572 116.79 6.01929C118.366 6.80705 119.69 7.91707 120.765 9.34937C121.839 10.7458 122.645 12.4109 123.182 14.3445C123.719 16.2781 123.987 18.3907 123.987 20.6824C123.987 23.4753 123.522 25.9281 122.591 28.0408C121.66 30.1534 120.299 31.9796 118.509 33.5193C116.754 35.059 114.57 36.366 111.956 37.4402C109.378 38.4786 106.424 39.3559 103.094 40.072V41.9519Z" fill="#F8AD4E" fill-opacity="0.1"/>
<path d="M28.7344 36.1484C28.7344 33.6172 28.3906 31.2891 27.7031 29.1641C27.0312 27.0391 26.0938 25.2031 24.8906 23.6562C23.7031 22.1094 22.2891 20.9062 20.6484 20.0469C19.0234 19.1875 17.25 18.7578 15.3281 18.7578C13.4219 18.7578 11.6562 19.1875 10.0312 20.0469C8.42188 20.9062 7.02344 22.1094 5.83594 23.6562C4.64844 25.2031 3.71875 27.0391 3.04688 29.1641C2.39062 31.2891 2.0625 33.6172 2.0625 36.1484C2.0625 38.6797 2.39844 41.0078 3.07031 43.1328C3.74219 45.2578 4.66406 47.0938 5.83594 48.6406C7.02344 50.1875 8.42969 51.3984 10.0547 52.2734C11.6797 53.1328 13.4375 53.5625 15.3281 53.5625C17.25 53.5625 19.0234 53.1328 20.6484 52.2734C22.2891 51.3984 23.7031 50.1875 24.8906 48.6406C26.0938 47.0938 27.0312 45.2578 27.7031 43.1328C28.3906 41.0078 28.7344 38.6797 28.7344 36.1484ZM7.52344 36.1484C7.52344 33.6641 7.67969 31.4141 7.99219 29.3984C8.30469 27.3828 8.78125 25.6641 9.42188 24.2422C10.0781 22.8047 10.8906 21.6953 11.8594 20.9141C12.8438 20.1328 14 19.7422 15.3281 19.7422C16.6719 19.7422 17.8359 20.1328 18.8203 20.9141C19.8203 21.6953 20.6484 22.8047 21.3047 24.2422C21.9609 25.6641 22.4453 27.3906 22.7578 29.4219C23.0859 31.4375 23.25 33.6797 23.25 36.1484C23.25 38.6172 23.0859 40.8672 22.7578 42.8984C22.4453 44.9141 21.9609 46.6406 21.3047 48.0781C20.6484 49.5 19.8203 50.6016 18.8203 51.3828C17.8359 52.1641 16.6719 52.5547 15.3281 52.5547C14 52.5547 12.8438 52.1641 11.8594 51.3828C10.8906 50.6016 10.0781 49.5 9.42188 48.0781C8.78125 46.6406 8.30469 44.9141 7.99219 42.8984C7.67969 40.8672 7.52344 38.6172 7.52344 36.1484ZM39.75 35.9609C41.25 36.1172 42.6328 36.4062 43.8984 36.8281C45.1641 37.25 46.25 37.8203 47.1562 38.5391C48.0781 39.2578 48.7891 40.1406 49.2891 41.1875C49.8047 42.2188 50.0625 43.4453 50.0625 44.8672C50.0625 45.9766 49.8984 47 49.5703 47.9375C49.2422 48.875 48.7578 49.6875 48.1172 50.375C47.4766 51.0625 46.6875 51.6016 45.75 51.9922C44.8125 52.3672 43.7422 52.5547 42.5391 52.5547C41.2266 52.5547 40.0781 52.2734 39.0938 51.7109C38.125 51.1328 37.2734 50.3828 36.5391 49.4609C35.8047 48.5234 35.1641 47.4688 34.6172 46.2969C34.0703 45.1094 33.5859 43.9062 33.1641 42.6875H32.7188L33.3281 51.4531C33.7344 51.7188 34.2656 51.9766 34.9219 52.2266C35.5781 52.4766 36.3047 52.7031 37.1016 52.9062C37.9141 53.1094 38.7734 53.2656 39.6797 53.375C40.5859 53.5 41.4844 53.5625 42.375 53.5625C44.25 53.5625 45.9609 53.3359 47.5078 52.8828C49.0547 52.4297 50.3828 51.7891 51.4922 50.9609C52.6172 50.1172 53.4844 49.1172 54.0938 47.9609C54.7188 46.7891 55.0312 45.5 55.0312 44.0938C55.0312 42.8438 54.8047 41.7031 54.3516 40.6719C53.8984 39.6406 53.2578 38.7266 52.4297 37.9297C51.6172 37.1172 50.6328 36.4297 49.4766 35.8672C48.3203 35.3047 47.0469 34.875 45.6562 34.5781C48.3438 33.9219 50.4062 32.9141 51.8438 31.5547C53.2812 30.1797 54 28.5469 54 26.6562C54 25.5156 53.7578 24.4609 53.2734 23.4922C52.8047 22.5234 52.1172 21.6875 51.2109 20.9844C50.3203 20.2812 49.2266 19.7344 47.9297 19.3438C46.6328 18.9375 45.1641 18.7344 43.5234 18.7344C42.4766 18.7344 41.5 18.7969 40.5938 18.9219C39.6875 19.0312 38.8438 19.1797 38.0625 19.3672C37.2969 19.5547 36.5938 19.7656 35.9531 20C35.3125 20.2344 34.7344 20.4688 34.2188 20.7031L33.6094 29.5859H34.0312C34.2656 28.9453 34.5234 28.2578 34.8047 27.5234C35.0859 26.7891 35.4141 26.0625 35.7891 25.3438C36.1641 24.6094 36.5859 23.9062 37.0547 23.2344C37.5391 22.5469 38.0859 21.9453 38.6953 21.4297C39.3047 20.9141 39.9922 20.5078 40.7578 20.2109C41.5234 19.8984 42.3828 19.7422 43.3359 19.7422C44.2422 19.7422 45.0391 19.9219 45.7266 20.2812C46.4141 20.625 46.9922 21.1094 47.4609 21.7344C47.9297 22.3438 48.2812 23.0703 48.5156 23.9141C48.75 24.7578 48.8672 25.6797 48.8672 26.6797C48.8672 27.8984 48.6641 28.9688 48.2578 29.8906C47.8516 30.8125 47.2578 31.6094 46.4766 32.2812C45.7109 32.9531 44.7578 33.5234 43.6172 33.9922C42.4922 34.4453 41.2031 34.8281 39.75 35.1406V35.9609Z" fill="#F8AD4E"/>
</svg>
