<svg width="140" height="83" viewBox="0 0 140 83" fill="none" xmlns="http://www.w3.org/2000/svg">
<path d="M72.8496 42.3818C72.8496 36.5811 72.0618 31.2458 70.4863 26.376C68.9466 21.5062 66.7982 17.2988 64.041 13.7539C61.3197 10.209 58.0791 7.45182 54.3193 5.48242C50.5954 3.51302 46.5312 2.52832 42.127 2.52832C37.7585 2.52832 33.7122 3.51302 29.9883 5.48242C26.3001 7.45182 23.0954 10.209 20.374 13.7539C17.6527 17.2988 15.5221 21.5062 13.9824 26.376C12.4785 31.2458 11.7266 36.5811 11.7266 42.3818C11.7266 48.1826 12.4964 53.5179 14.0361 58.3877C15.5758 63.2575 17.6885 67.4648 20.374 71.0098C23.0954 74.5547 26.318 77.3298 30.042 79.335C33.766 81.3044 37.7943 82.2891 42.127 82.2891C46.5312 82.2891 50.5954 81.3044 54.3193 79.335C58.0791 77.3298 61.3197 74.5547 64.041 71.0098C66.7982 67.4648 68.9466 63.2575 70.4863 58.3877C72.0618 53.5179 72.8496 48.1826 72.8496 42.3818ZM24.2412 42.3818C24.2412 36.6885 24.5993 31.5322 25.3154 26.9131C26.0316 22.2939 27.1237 18.3551 28.5918 15.0967C30.0957 11.8024 31.9577 9.26009 34.1777 7.46973C36.4336 5.67936 39.0833 4.78418 42.127 4.78418C45.2064 4.78418 47.874 5.67936 50.1299 7.46973C52.4215 9.26009 54.3193 11.8024 55.8232 15.0967C57.3271 18.3551 58.4372 22.3118 59.1533 26.9668C59.9053 31.5859 60.2812 36.7243 60.2812 42.3818C60.2812 48.0394 59.9053 53.1956 59.1533 57.8506C58.4372 62.4697 57.3271 66.4264 55.8232 69.7207C54.3193 72.9792 52.4215 75.5036 50.1299 77.2939C47.874 79.0843 45.2064 79.9795 42.127 79.9795C39.0833 79.9795 36.4336 79.0843 34.1777 77.2939C31.9577 75.5036 30.0957 72.9792 28.5918 69.7207C27.1237 66.4264 26.0316 62.4697 25.3154 57.8506C24.5993 53.1956 24.2412 48.0394 24.2412 42.3818ZM84.2363 55.0039L110.125 16.4395V55.0039H84.2363ZM121.404 59.623H132.952V55.0039H121.404V3.76367H115.926L78.7041 58.0117L79.3486 59.623H110.071V74.9844L101.263 79.9795V81H130.213V79.9795L121.404 74.9844V59.623Z" fill="#F8AD4E" fill-opacity="0.1"/>
<path d="M28.7344 31.1487C28.7344 28.6174 28.3906 26.2893 27.7031 24.1643C27.0312 22.0393 26.0938 20.2034 24.8906 18.6565C23.7031 17.1096 22.2891 15.9065 20.6484 15.0471C19.0234 14.1877 17.25 13.7581 15.3281 13.7581C13.4219 13.7581 11.6562 14.1877 10.0312 15.0471C8.42188 15.9065 7.02344 17.1096 5.83594 18.6565C4.64844 20.2034 3.71875 22.0393 3.04688 24.1643C2.39062 26.2893 2.0625 28.6174 2.0625 31.1487C2.0625 33.6799 2.39844 36.0081 3.07031 38.1331C3.74219 40.2581 4.66406 42.094 5.83594 43.6409C7.02344 45.1877 8.42969 46.3987 10.0547 47.2737C11.6797 48.1331 13.4375 48.5627 15.3281 48.5627C17.25 48.5627 19.0234 48.1331 20.6484 47.2737C22.2891 46.3987 23.7031 45.1877 24.8906 43.6409C26.0938 42.094 27.0312 40.2581 27.7031 38.1331C28.3906 36.0081 28.7344 33.6799 28.7344 31.1487ZM7.52344 31.1487C7.52344 28.6643 7.67969 26.4143 7.99219 24.3987C8.30469 22.3831 8.78125 20.6643 9.42188 19.2424C10.0781 17.8049 10.8906 16.6956 11.8594 15.9143C12.8438 15.1331 14 14.7424 15.3281 14.7424C16.6719 14.7424 17.8359 15.1331 18.8203 15.9143C19.8203 16.6956 20.6484 17.8049 21.3047 19.2424C21.9609 20.6643 22.4453 22.3909 22.7578 24.4221C23.0859 26.4377 23.25 28.6799 23.25 31.1487C23.25 33.6174 23.0859 35.8674 22.7578 37.8987C22.4453 39.9143 21.9609 41.6409 21.3047 43.0784C20.6484 44.5002 19.8203 45.6018 18.8203 46.3831C17.8359 47.1643 16.6719 47.5549 15.3281 47.5549C14 47.5549 12.8438 47.1643 11.8594 46.3831C10.8906 45.6018 10.0781 44.5002 9.42188 43.0784C8.78125 41.6409 8.30469 39.9143 7.99219 37.8987C7.67969 35.8674 7.52344 33.6174 7.52344 31.1487ZM33.7031 36.6565L45 19.8284V36.6565H33.7031ZM49.9219 38.6721H54.9609V36.6565H49.9219V14.2971H47.5312L31.2891 37.969L31.5703 38.6721H44.9766V45.3752L41.1328 47.5549V48.0002H53.7656V47.5549L49.9219 45.3752V38.6721Z" fill="#F8AD4E"/>
</svg>
