<svg width="225" height="225" viewBox="0 0 225 225" fill="none" xmlns="http://www.w3.org/2000/svg">
<g filter="url(#filter0_f)">
<circle cx="112.5" cy="112.5" r="53.5" fill="#F8AD4E" fill-opacity="0.15"/>
</g>
<path d="M117.106 112.227H108.716C107.254 112.227 106.064 113.507 106.064 115.079V119.691C106.064 121.264 107.254 122.544 108.716 122.544H117.106C118.568 122.544 119.758 121.264 119.758 119.691V115.079C119.758 113.507 118.568 112.227 117.106 112.227ZM117.708 119.691C117.708 120.048 117.438 120.339 117.106 120.339H108.716C108.384 120.339 108.114 120.048 108.114 119.691V115.08C108.114 114.723 108.384 114.433 108.716 114.433H117.106C117.438 114.433 117.708 114.723 117.708 115.08V119.691Z" fill="#F8AD4E"/>
<path d="M147.878 95.2091C147.732 93.6716 146.522 92.4683 145.056 92.4683H125.042V87.3042C125.042 84.8592 123.193 82.8696 120.921 82.8696H104.902C102.63 82.8696 100.781 84.8592 100.781 87.3042V92.4683H80.7672C79.301 92.4683 78.0909 93.6716 77.9457 95.2091C77.9356 95.3114 77.9308 95.4153 77.9308 95.5204V139.055C77.9308 140.738 79.2033 142.107 80.7672 142.107H145.056C146.62 142.107 147.892 140.738 147.892 139.055V95.5204C147.892 95.4153 147.888 95.3114 147.878 95.2091ZM102.831 87.3042C102.831 86.0751 103.76 85.0752 104.902 85.0752H120.921C122.063 85.0752 122.992 86.0751 122.992 87.3042V92.4683H121.676V88.1618C121.676 87.2405 120.98 86.491 120.124 86.491H105.699C104.843 86.491 104.147 87.2405 104.147 88.1618V92.4683H102.831V87.3042ZM119.627 88.6965V92.4683H106.196V88.6965H119.627ZM145.843 97.0218C145.843 99.7609 144.356 102.288 142.056 103.46L122.988 113.177C122.477 113.438 122.259 114.096 122.501 114.646C122.743 115.197 123.355 115.431 123.865 115.171L142.933 105.454C144.071 104.874 145.056 104.04 145.843 103.035V139.055C145.843 139.522 145.49 139.902 145.056 139.902H80.7672C80.3333 139.902 79.9804 139.522 79.9804 139.055V103.035C80.7667 104.04 81.7525 104.874 82.8905 105.454L101.991 115.188C102.133 115.26 102.282 115.294 102.429 115.294C102.813 115.294 103.181 115.061 103.356 114.663C103.598 114.113 103.38 113.455 102.869 113.195L83.7675 103.46C81.467 102.288 79.9804 99.7609 79.9804 97.0218V95.5204C79.9804 95.4911 79.982 95.4624 79.9847 95.4337C80.0247 95.0075 80.3605 94.6738 80.7672 94.6738H145.056C145.463 94.6738 145.798 95.0075 145.838 95.4337C145.841 95.4624 145.843 95.4911 145.843 95.5204V97.0218Z" fill="#F8AD4E"/>
<defs>
<filter id="filter0_f" x="0.970249" y="0.970249" width="223.06" height="223.06" filterUnits="userSpaceOnUse" color-interpolation-filters="sRGB">
<feFlood flood-opacity="0" result="BackgroundImageFix"/>
<feBlend mode="normal" in="SourceGraphic" in2="BackgroundImageFix" result="shape"/>
<feGaussianBlur stdDeviation="29.0149" result="effect1_foregroundBlur"/>
</filter>
</defs>
</svg>
