<svg width="225" height="225" viewBox="0 0 225 225" fill="none" xmlns="http://www.w3.org/2000/svg">
<g filter="url(#filter0_f)">
<circle cx="112.5" cy="112.5" r="53.5" fill="#F8AD4E" fill-opacity="0.15"/>
</g>
<path d="M112.513 74.6382C97.3639 74.636 83.6722 83.668 77.7095 97.5974L77.2376 97.7539L77.4205 98.3029C69.5697 117.67 78.902 139.736 98.2651 147.588C102.788 149.422 107.622 150.364 112.502 150.361C133.408 150.364 150.358 133.416 150.361 112.505C150.365 91.5951 133.419 74.6412 112.513 74.6382ZM142.205 131.589L140.261 129.646V125.12C140.264 124.925 140.22 124.732 140.135 124.556L135.214 114.726V109.976C135.214 109.554 135.004 109.16 134.653 108.926L130.867 106.401C130.571 106.203 130.204 106.14 129.858 106.227L125.222 107.386L117.436 104.044L116.364 96.5373L119.333 93.569H125.707L127.852 96.7935C128.045 97.0834 128.351 97.2805 128.695 97.3374L136.265 98.5995C136.468 98.6336 136.676 98.617 136.871 98.5515L143.844 96.2268C149.692 107.452 149.066 120.953 142.205 131.589ZM137.001 87.0744L134.949 88.4425L129.23 87.2978L125.519 86.0623C125.292 85.9851 125.047 85.9753 124.815 86.0345L120.123 87.207L118.067 86.5217L119.591 83.4725H123.858C124.054 83.4727 124.247 83.4274 124.422 83.34L128.788 81.1567C131.794 82.7264 134.56 84.7191 137.001 87.0744ZM98.6817 79.9804L101.71 81.9997C101.859 82.0988 102.027 82.1651 102.203 82.1941L108.318 83.2138L107.721 84.9996L104.535 86.0635C104.25 86.1585 104.008 86.3522 103.852 86.61L100.229 92.6502L94.408 96.1435L85.8278 97.369C85.2059 97.4569 84.7435 97.989 84.7427 98.6172V102.403C84.7427 102.738 84.8758 103.059 85.1124 103.296L87.2663 105.45V107.618L82.0172 104.117L80.1132 98.4039C83.7358 90.1248 90.3755 83.5369 98.6817 79.9804ZM95.0894 121.359L89.3861 120.217L87.2663 115.988V113.022L91.9677 108.32L93.7077 111.802C93.9214 112.23 94.3588 112.5 94.837 112.5H102.955L106.374 118.198C106.602 118.578 107.012 118.81 107.455 118.81H110.963L110.079 123.236L105.302 128.014C105.065 128.251 104.932 128.571 104.931 128.906V132.062L100.389 135.469C100.071 135.707 99.8842 136.081 99.8842 136.479V141.037L98.3145 140.517L96.0988 134.974V122.596C96.099 121.996 95.6769 121.479 95.0894 121.359ZM91.2964 140.76C79.3995 131.833 74.3683 116.408 78.7126 102.181L79.7612 105.326C79.8495 105.592 80.0239 105.822 80.257 105.977L86.5471 110.171L85.1124 111.607C84.8758 111.844 84.7427 112.165 84.7427 112.5V116.286C84.7425 116.482 84.7878 116.675 84.8752 116.85L87.3988 121.898C87.5735 122.247 87.8995 122.495 88.282 122.571L93.5815 123.63V135.217C93.5814 135.377 93.6118 135.536 93.6711 135.685L96.1947 141.995C96.3329 142.34 96.6158 142.606 96.9682 142.723L100.754 143.985C100.88 144.028 101.013 144.05 101.146 144.051C101.843 144.051 102.408 143.486 102.408 142.789V137.11L106.95 133.702C107.268 133.464 107.455 133.09 107.455 132.693V129.429L112.132 124.75C112.308 124.574 112.428 124.35 112.477 124.106L113.739 117.795C113.875 117.112 113.432 116.447 112.749 116.31C112.667 116.294 112.585 116.286 112.502 116.286H108.169L104.751 110.588C104.523 110.208 104.112 109.976 103.67 109.976H95.6168L93.449 105.625C93.2675 105.262 92.9224 105.008 92.5216 104.944C92.121 104.875 91.712 105.007 91.4277 105.297L89.7899 106.929V104.927C89.7899 104.593 89.6567 104.272 89.4202 104.035L87.2663 101.881V99.7114L95.0162 98.6045C95.1826 98.5804 95.3427 98.5233 95.4868 98.4367L101.796 94.6505C101.973 94.5442 102.121 94.3959 102.227 94.2189L105.773 88.3087L109.115 87.1931C109.493 87.0692 109.789 86.7731 109.913 86.3955L111.175 82.6093C111.393 81.9475 111.034 81.2337 110.372 81.015C110.311 80.9948 110.249 80.9794 110.185 80.9686L102.882 79.7508L101.599 78.8951C109.539 76.3101 118.139 76.63 125.866 79.7974L123.56 80.9484H118.811C118.33 80.9458 117.89 81.2165 117.675 81.6464L115.152 86.6946C114.841 87.3183 115.094 88.0762 115.718 88.3871C115.771 88.4136 115.826 88.4363 115.882 88.4551L119.668 89.7172C119.895 89.7943 120.139 89.8041 120.372 89.7449L125.063 88.5725L128.5 89.7172C128.549 89.7348 128.6 89.7484 128.652 89.7576L134.961 91.0196C135.289 91.0865 135.63 91.0193 135.908 90.8328L138.78 88.917C140.193 90.4916 141.464 92.1891 142.576 93.9892L136.368 96.059L129.646 94.9383L127.425 91.6065C127.192 91.2573 126.801 91.0469 126.382 91.0448H118.811C118.476 91.0448 118.155 91.178 117.919 91.4146L114.134 95.2008C113.852 95.4817 113.72 95.8788 113.776 96.2723L115.038 105.107C115.102 105.543 115.389 105.915 115.795 106.087L124.628 109.873C124.881 109.983 125.163 110.006 125.43 109.938L129.936 108.811L132.691 110.651V115.024C132.688 115.219 132.732 115.412 132.817 115.588L137.738 125.418V130.168C137.738 130.503 137.871 130.824 138.108 131.061L140.747 133.702C129.04 149.309 106.9 152.47 91.2964 140.76Z" fill="#F8AD4E"/>
<defs>
<filter id="filter0_f" x="0.970249" y="0.970249" width="223.06" height="223.06" filterUnits="userSpaceOnUse" color-interpolation-filters="sRGB">
<feFlood flood-opacity="0" result="BackgroundImageFix"/>
<feBlend mode="normal" in="SourceGraphic" in2="BackgroundImageFix" result="shape"/>
<feGaussianBlur stdDeviation="29.0149" result="effect1_foregroundBlur"/>
</filter>
</defs>
</svg>
