<svg width="13" height="18" viewBox="0 0 13 18" fill="none" xmlns="http://www.w3.org/2000/svg">
<path d="M6.5 0C2.91015 0 0 2.95493 0 6.6C0 10.1466 6.01605 17.5767 6.2722 17.8911C6.32834 17.9601 6.41188 18 6.5 18C6.58812 18 6.67166 17.9601 6.7278 17.8911C6.98395 17.5767 13 10.1466 13 6.6C13 2.95493 10.0898 0 6.5 0ZM6.5 17.2233C5.3882 15.8142 0.590909 9.5616 0.590909 6.6C0.594639 3.28785 3.23807 0.603788 6.5 0.6C9.76197 0.603788 12.4054 3.28785 12.4091 6.6C12.4091 9.561 7.61179 15.8139 6.5 17.2233Z" fill="#5371AB"/>
<path d="M10.8748 5.97726L6.69608 3.06054C6.58048 2.97982 6.41952 2.97982 6.30392 3.06054L2.1252 5.97726C1.98461 6.07559 1.9585 6.25876 2.06686 6.38633C2.12769 6.45794 2.22164 6.4999 2.32128 6.49994H3.2856V9.70833C3.2856 9.8694 3.42953 10 3.60704 10H9.39296C9.57048 10 9.7144 9.8694 9.7144 9.70833V6.49994H10.6787C10.8562 6.49986 11.0001 6.36919 11 6.20812C11 6.1177 10.9537 6.03246 10.8748 5.97726ZM7.14288 9.41666H5.85712V7.66662H7.14288V9.41666ZM9.39296 5.91659C9.21545 5.91659 9.07152 6.04719 9.07152 6.20826V9.41666H7.78576V7.37495C7.78576 7.21388 7.64184 7.08328 7.46432 7.08328H5.53568C5.35817 7.08328 5.21424 7.21388 5.21424 7.37495V9.41666H3.92848V6.20826C3.92848 6.04719 3.78456 5.91659 3.60704 5.91659H3.26632L6.5 3.65963L9.73369 5.91659H9.39296Z" fill="#5371AB"/>
</svg>
