<svg width="225" height="225" viewBox="0 0 225 225" fill="none" xmlns="http://www.w3.org/2000/svg">
<g filter="url(#filter0_f)">
<circle cx="112.5" cy="112.5" r="53.5" fill="#F8AD4E" fill-opacity="0.15"/>
</g>
<path d="M144.312 88.2639H146.779C147.64 88.2639 148.338 87.5661 148.338 86.7056C148.338 85.8451 147.64 85.1473 146.779 85.1473H140.858C139.997 85.1473 139.299 85.8451 139.299 86.7056V92.6272C139.299 93.4877 139.997 94.1855 140.858 94.1855C141.718 94.1855 142.416 93.4877 142.416 92.6272V90.9126C147.144 97.2426 149.714 104.923 149.714 112.911C149.714 133.205 133.205 149.714 112.912 149.714C92.6187 149.714 76.1092 133.205 76.1092 112.911C76.1092 92.6183 92.6187 76.1088 112.912 76.1088C114.413 76.1088 115.923 76.2 117.402 76.3797C118.255 76.4828 119.033 75.8752 119.137 75.0208C119.241 74.1665 118.632 73.3896 117.778 73.2858C116.175 73.091 114.538 72.9922 112.912 72.9922C102.249 72.9922 92.2243 77.1445 84.6846 84.6843C77.1449 92.2239 72.9926 102.249 72.9926 112.911C72.9926 123.574 77.1449 133.599 84.6846 141.139C92.2243 148.678 102.249 152.831 112.912 152.831C123.575 152.831 133.599 148.678 141.139 141.139C148.679 133.599 152.831 123.574 152.831 112.911C152.831 103.914 149.825 95.2754 144.312 88.2639Z" fill="#F8AD4E"/>
<path d="M89.8962 96.5248C89.1689 96.0645 88.2063 96.2811 87.7458 97.0079C84.1884 102.627 82.6135 109.384 83.3115 116.035C84.0197 122.785 87.0577 129.15 91.8657 133.958C97.6682 139.76 105.29 142.662 112.912 142.662C120.534 142.662 128.156 139.76 133.959 133.958C145.564 122.353 145.564 103.47 133.959 91.8652C129.158 87.0647 122.803 84.0278 116.065 83.3141C109.426 82.6105 102.676 84.1731 97.0596 87.7131C96.3314 88.172 96.1134 89.1343 96.5722 89.8623C97.0311 90.5905 97.9934 90.8085 98.7214 90.3498C109.308 83.677 122.892 85.2062 131.755 94.069C142.144 104.459 142.144 121.364 131.755 131.754C121.365 142.144 104.459 142.144 94.0697 131.754C85.3294 123.014 83.7773 109.102 90.3793 98.6753C90.8394 97.948 90.6233 96.9853 89.8962 96.5248Z" fill="#F8AD4E"/>
<path d="M133.168 114.495H135.09C135.951 114.495 136.648 113.797 136.648 112.936C136.648 112.076 135.951 111.378 135.09 111.378H133.168C132.308 111.378 131.61 112.076 131.61 112.936C131.61 113.797 132.308 114.495 133.168 114.495Z" fill="#F8AD4E"/>
<path d="M89.172 112.886C89.172 113.746 89.8698 114.444 90.7303 114.444H92.652C93.5125 114.444 94.2104 113.746 94.2104 112.886C94.2104 112.025 93.5125 111.327 92.652 111.327H90.7303C89.8698 111.327 89.172 112.025 89.172 112.886Z" fill="#F8AD4E"/>
<path d="M114.494 92.6527V90.7309C114.494 89.8704 113.796 89.1726 112.936 89.1726C112.075 89.1726 111.377 89.8704 111.377 90.7309V92.6527C111.377 93.5132 112.075 94.211 112.936 94.211C113.796 94.211 114.494 93.5132 114.494 92.6527Z" fill="#F8AD4E"/>
<path d="M111.328 133.169V135.091C111.328 135.951 112.026 136.649 112.887 136.649C113.747 136.649 114.445 135.951 114.445 135.091V133.169C114.445 132.309 113.747 131.611 112.887 131.611C112.026 131.611 111.328 132.309 111.328 133.169Z" fill="#F8AD4E"/>
<path d="M105.1 102.896C104.492 102.288 103.505 102.288 102.896 102.896C102.288 103.505 102.288 104.492 102.896 105.1L108.178 110.382C107.773 111.136 107.543 111.997 107.543 112.911C107.543 115.871 109.951 118.28 112.911 118.28C115.872 118.28 118.28 115.871 118.28 112.911C118.28 111.997 118.049 111.136 117.645 110.382L128.301 99.7254C128.91 99.1169 128.91 98.1301 128.301 97.5215C127.692 96.9131 126.706 96.9131 126.097 97.5215L115.441 108.178C114.687 107.773 113.825 107.543 112.911 107.543C111.997 107.543 111.136 107.773 110.382 108.178L105.1 102.896ZM115.163 112.911C115.163 114.153 114.153 115.163 112.911 115.163C111.67 115.163 110.66 114.153 110.66 112.911C110.66 111.67 111.67 110.66 112.911 110.66C114.153 110.66 115.163 111.67 115.163 112.911Z" fill="#F8AD4E"/>
<path d="M94.0678 94.0675C94.3592 93.7777 94.5258 93.3756 94.5258 92.9658C94.5258 92.556 94.3592 92.1555 94.0678 91.8641C93.7779 91.5744 93.3773 91.4075 92.966 91.4075C92.5562 91.4075 92.1542 91.5742 91.8643 91.8641C91.5746 92.1539 91.4077 92.556 91.4077 92.9658C91.4077 93.3772 91.5745 93.7777 91.8643 94.0675C92.1542 94.3572 92.5562 94.5241 92.966 94.5241C93.3773 94.5241 93.7779 94.3572 94.0678 94.0675Z" fill="#F8AD4E"/>
<path d="M123.707 77.6477C124.118 77.6477 124.52 77.4823 124.81 77.1911C125.1 76.9012 125.267 76.5006 125.267 76.0893C125.267 75.6795 125.1 75.2774 124.81 74.9876C124.52 74.6979 124.118 74.531 123.707 74.531C123.297 74.531 122.895 74.6977 122.605 74.9876C122.315 75.2774 122.149 75.6795 122.149 76.0893C122.149 76.5007 122.315 76.9012 122.605 77.1911C122.895 77.4823 123.297 77.6477 123.707 77.6477Z" fill="#F8AD4E"/>
<defs>
<filter id="filter0_f" x="0.970249" y="0.970249" width="223.06" height="223.06" filterUnits="userSpaceOnUse" color-interpolation-filters="sRGB">
<feFlood flood-opacity="0" result="BackgroundImageFix"/>
<feBlend mode="normal" in="SourceGraphic" in2="BackgroundImageFix" result="shape"/>
<feGaussianBlur stdDeviation="29.0149" result="effect1_foregroundBlur"/>
</filter>
</defs>
</svg>
