<svg width="225" height="225" viewBox="0 0 225 225" fill="none" xmlns="http://www.w3.org/2000/svg">
<g filter="url(#filter0_f)">
<circle cx="112.5" cy="112.5" r="53.5" fill="#F8AD4E" fill-opacity="0.15"/>
</g>
<path d="M151.444 105.775C151.094 105.568 150.661 105.561 150.306 105.758L136.001 113.651V110.9C136.001 107.986 133.635 105.615 130.727 105.615H127.745C131.779 103.02 134.457 98.4851 134.457 93.3346C134.457 90.7459 133.771 88.2029 132.473 85.9805C132.153 85.432 131.45 85.2474 130.903 85.5687C130.356 85.8895 130.172 86.5941 130.492 87.1423C131.585 89.0126 132.162 91.154 132.162 93.3348C132.162 100.106 126.665 105.615 119.909 105.615C113.153 105.615 107.656 100.106 107.656 93.3348C107.656 86.5635 113.153 81.0544 119.909 81.0544C122.786 81.0544 125.583 82.0738 127.782 83.925C128.268 84.3335 128.991 84.2704 129.399 83.7835C129.807 83.2971 129.744 82.5716 129.258 82.1631C126.645 79.9646 123.325 78.7539 119.909 78.7539C112.804 78.7539 106.874 83.8855 105.611 90.6444C103.676 88.2917 100.748 86.7891 97.4755 86.7891C91.664 86.7891 86.9362 91.5277 86.9362 97.3522C86.9362 100.695 88.4953 103.678 90.9211 105.615C88.0159 105.618 85.6533 107.988 85.6533 110.901V111.087H80.9807L75.4549 108.463C74.7272 108.091 73.7918 108.684 73.8159 109.503V123.776C73.7913 124.595 74.7284 125.188 75.4549 124.816L80.9807 122.192H85.6535V140.332C85.6535 143.246 88.0192 145.617 90.9272 145.617H120.811C121.444 145.617 121.958 145.103 121.958 144.467C121.958 143.832 121.445 143.317 120.811 143.317H90.9272C89.2848 143.317 87.9487 141.978 87.9487 140.332V110.901C87.9487 109.255 89.2848 107.915 90.9272 107.915H130.727C132.37 107.915 133.706 109.254 133.706 110.901V140.332C133.706 141.978 132.37 143.317 130.727 143.317H125.401C124.767 143.317 124.253 143.832 124.253 144.468C124.253 145.103 124.767 145.618 125.401 145.618H130.727C133.635 145.618 136.001 143.247 136.001 140.332V131.202L150.306 139.096C151.035 139.528 152.033 138.936 152.007 138.088V106.765C152.007 106.358 151.793 105.982 151.444 105.775ZM76.1111 111.32L79.5748 112.965V120.314L76.1111 121.959V111.32ZM81.8702 119.892V113.387H85.6535V119.892H81.8702ZM89.2314 97.3522C89.2314 92.7962 92.9296 89.0895 97.4755 89.0895C102.021 89.0895 105.72 92.7962 105.72 97.3522C105.72 101.908 102.021 105.615 97.4755 105.615C92.9298 105.615 89.2314 101.908 89.2314 97.3522ZM104.03 105.615C105.575 104.381 106.767 102.723 107.43 100.817C108.589 102.752 110.181 104.398 112.074 105.615H104.03ZM149.712 136.142L136.001 128.576V116.277L149.712 108.711V136.142Z" fill="#F8AD4E"/>
<path d="M114.058 93.3349C114.058 96.5684 116.682 99.1989 119.909 99.1989C123.135 99.1989 125.76 96.5684 125.76 93.3349C125.76 90.1015 123.135 87.4709 119.909 87.4709C116.682 87.4709 114.058 90.1015 114.058 93.3349ZM123.464 93.3349C123.464 95.2998 121.869 96.8984 119.909 96.8984C117.948 96.8984 116.353 95.2998 116.353 93.3349C116.353 91.3701 117.948 89.7713 119.909 89.7713C121.869 89.7715 123.464 91.3701 123.464 93.3349Z" fill="#F8AD4E"/>
<path d="M97.4752 101.496C99.7551 101.496 101.61 99.6373 101.61 97.3524C101.61 95.0674 99.7551 93.2085 97.4752 93.2085C95.1954 93.2085 93.3405 95.0674 93.3405 97.3524C93.3406 99.6374 95.1954 101.496 97.4752 101.496ZM97.4752 95.5089C98.4895 95.5089 99.3147 96.3359 99.3147 97.3524C99.3147 98.369 98.4895 99.196 97.4752 99.196C96.461 99.196 95.6358 98.369 95.6358 97.3524C95.6358 96.3359 96.461 95.5089 97.4752 95.5089Z" fill="#F8AD4E"/>
<path d="M124.253 128.616V116.068C124.253 114.589 123.052 113.385 121.575 113.385H109.162C108.528 113.385 108.014 113.899 108.014 114.535C108.014 115.17 108.528 115.685 109.162 115.685H121.575C121.786 115.685 121.958 115.857 121.958 116.068V128.616C121.958 128.828 121.786 129 121.575 129H100.078C99.8674 129 99.6957 128.828 99.6957 128.616V116.068C99.6957 115.857 99.8674 115.685 100.078 115.685H104.572C105.206 115.685 105.719 115.17 105.719 114.535C105.719 113.899 105.206 113.385 104.572 113.385H100.078C98.6018 113.385 97.4005 114.589 97.4005 116.068V128.616C97.4005 130.096 98.6018 131.3 100.078 131.3H121.575C123.052 131.3 124.253 130.096 124.253 128.616Z" fill="#F8AD4E"/>
<path d="M117.001 135.298C116.368 135.298 115.854 135.813 115.854 136.448C115.854 137.083 116.368 137.598 117.001 137.598H119.864C120.498 137.598 121.012 137.083 121.012 136.448C121.012 135.813 120.498 135.298 119.864 135.298H117.001Z" fill="#F8AD4E"/>
<path d="M109.395 135.298C108.761 135.298 108.247 135.813 108.247 136.448C108.247 137.083 108.761 137.598 109.395 137.598H112.258C112.892 137.598 113.406 137.083 113.406 136.448C113.406 135.813 112.892 135.298 112.258 135.298H109.395Z" fill="#F8AD4E"/>
<path d="M101.79 135.298C101.157 135.298 100.643 135.813 100.643 136.448C100.643 137.083 101.157 137.598 101.79 137.598H104.653C105.287 137.598 105.801 137.083 105.801 136.448C105.801 135.813 105.287 135.298 104.653 135.298H101.79Z" fill="#F8AD4E"/>
<defs>
<filter id="filter0_f" x="0.970249" y="0.970249" width="223.06" height="223.06" filterUnits="userSpaceOnUse" color-interpolation-filters="sRGB">
<feFlood flood-opacity="0" result="BackgroundImageFix"/>
<feBlend mode="normal" in="SourceGraphic" in2="BackgroundImageFix" result="shape"/>
<feGaussianBlur stdDeviation="29.0149" result="effect1_foregroundBlur"/>
</filter>
</defs>
</svg>
