<svg width="64" height="64" viewBox="0 0 64 64" fill="none" xmlns="http://www.w3.org/2000/svg">
<circle cx="32.0001" cy="31.9348" r="31.9348" fill="#F8AD4E"/>
<path d="M32.0051 24.0503C27.6511 24.0503 24.1263 27.579 24.1263 31.9291C24.1263 36.283 27.655 39.8079 32.0051 39.8079C36.359 39.8079 39.8838 36.2792 39.8838 31.9291C39.8838 27.5751 36.3552 24.0503 32.0051 24.0503ZM32.0051 37.043C29.1788 37.043 26.8911 34.7541 26.8911 31.9291C26.8911 29.1041 29.1801 26.8152 32.0051 26.8152C34.8301 26.8152 37.119 29.1041 37.119 31.9291C37.1203 34.7541 34.8313 37.043 32.0051 37.043Z" fill="white"/>
<path d="M38.3305 16.679C35.5055 16.5472 28.5083 16.5536 25.6807 16.679C23.196 16.7954 21.0044 17.3955 19.2375 19.1624C16.2845 22.1153 16.6619 26.0944 16.6619 31.9299C16.6619 37.9023 16.3293 41.7892 19.2375 44.6974C22.2019 47.6606 26.2385 47.2729 32.005 47.2729C37.9211 47.2729 39.9631 47.2768 42.055 46.4669C44.8992 45.3627 47.0461 42.8205 47.2559 38.2542C47.3889 35.4279 47.3813 28.4319 47.2559 25.6043C47.0026 20.2141 44.1097 16.9451 38.3305 16.679ZM42.8022 42.7437C40.8664 44.6795 38.1808 44.5068 31.9679 44.5068C25.5707 44.5068 23.0054 44.6014 21.1336 42.7245C18.9777 40.5789 19.368 37.1334 19.368 31.9094C19.368 24.8405 18.6425 19.7496 25.737 19.3863C27.367 19.3287 27.8468 19.3095 31.95 19.3095L32.0075 19.3479C38.8257 19.3479 44.175 18.634 44.4961 25.7272C44.5691 27.3457 44.5857 27.8318 44.5857 31.9286C44.5844 38.2516 44.7047 40.8322 42.8022 42.7437Z" fill="white"/>
<path d="M40.1961 25.5802C41.2129 25.5802 42.0372 24.7559 42.0372 23.7391C42.0372 22.7222 41.2129 21.8979 40.1961 21.8979C39.1793 21.8979 38.355 22.7222 38.355 23.7391C38.355 24.7559 39.1793 25.5802 40.1961 25.5802Z" fill="white"/>
</svg>
