<svg width="64" height="64" viewBox="0 0 64 64" fill="none" xmlns="http://www.w3.org/2000/svg">
<circle cx="31.9348" cy="31.9348" r="31.9348" fill="#F8AD4E"/>
<path d="M44.3884 33.9098C43.7629 33.1145 43.9418 32.7607 44.3884 32.0498C44.3965 32.0417 49.5602 24.858 50.0922 22.4218L50.0954 22.4202C50.3598 21.5324 50.0954 20.8799 48.817 20.8799H44.5867C43.5098 20.8799 43.0132 21.4398 42.7472 22.0663C42.7472 22.0663 40.5934 27.2569 37.5464 30.6215C36.563 31.5937 36.1084 31.9053 35.5716 31.9053C35.3072 31.9053 34.8961 31.5937 34.8961 30.7059V22.4202C34.8961 21.3554 34.5946 20.8799 33.7031 20.8799H27.0514C26.3759 20.8799 25.9744 21.3765 25.9744 21.8391C25.9744 22.8487 27.4979 23.0808 27.6559 25.9211V32.0839C27.6559 33.4342 27.4125 33.6826 26.8724 33.6826C25.4344 33.6826 21.9441 28.4709 19.8757 22.5062C19.4581 21.3489 19.0503 20.8815 17.9653 20.8815H13.7334C12.5259 20.8815 12.2825 21.4415 12.2825 22.068C12.2825 23.1749 13.7205 28.6787 18.9697 35.95C22.468 40.9133 27.3948 43.6027 31.8765 43.6027C34.5704 43.6027 34.8993 43.0054 34.8993 41.978C34.8993 37.2355 34.6559 36.7875 36.0052 36.7875C36.6307 36.7875 37.7077 37.0991 40.2226 39.4931C43.0971 42.3319 43.5694 43.6027 45.1784 43.6027H49.4086C50.6145 43.6027 51.2255 43.0054 50.8741 41.8271C50.0696 39.3487 44.6335 34.2506 44.3884 33.9098Z" fill="white"/>
</svg>
