<svg width="64" height="64" viewBox="0 0 64 64" fill="none" xmlns="http://www.w3.org/2000/svg">
<circle cx="32.0653" cy="31.9348" r="31.9348" fill="#F8AD4E"/>
<path d="M47.8994 23.6878L47.9416 23.964C47.5335 22.5142 46.4315 21.3956 45.0312 20.9884L45.0016 20.9814C42.3684 20.2656 31.7724 20.2656 31.7724 20.2656C31.7724 20.2656 21.2031 20.2516 18.5431 20.9814C17.1161 21.3956 16.0127 22.5142 15.6116 23.9344L15.6046 23.964C14.6208 29.1078 14.6138 35.2886 15.6482 40.7959L15.6046 40.517C16.0127 41.9667 17.1147 43.0854 18.515 43.4925L18.5446 43.4996C21.1749 44.2167 31.7738 44.2167 31.7738 44.2167C31.7738 44.2167 42.3417 44.2167 45.003 43.4996C46.4315 43.0854 47.5349 41.9667 47.936 40.5466L47.943 40.517C48.3905 38.1247 48.6467 35.3717 48.6467 32.5596C48.6467 32.4567 48.6467 32.3525 48.6453 32.2482C48.6467 32.1524 48.6467 32.0383 48.6467 31.9242C48.6467 29.1106 48.3905 26.3577 47.8994 23.6878ZM28.3919 37.385V27.11L37.2104 32.2553L28.3919 37.385Z" fill="white"/>
</svg>
