<svg width="225" height="225" viewBox="0 0 225 225" fill="none" xmlns="http://www.w3.org/2000/svg">
<g filter="url(#filter0_f)">
<circle cx="112.5" cy="112.5" r="53.5" fill="#F8AD4E" fill-opacity="0.15"/>
</g>
<path d="M139.883 98.2351L136.228 93.8008C135.726 93.192 135.421 92.4555 135.346 91.6709L134.795 85.9508C134.509 82.9788 132.144 80.6138 129.172 80.3275L123.452 79.7769C122.667 79.7015 121.931 79.3962 121.322 78.8949L116.888 75.2393C114.584 73.3405 111.239 73.3405 108.935 75.2393L104.501 78.8949C103.893 79.3962 103.157 79.7015 102.371 79.7769L96.6512 80.3275C93.6792 80.6138 91.3148 82.9788 91.0279 85.9508L90.4773 91.6709C90.4019 92.4555 90.0966 93.192 89.5954 93.8008L85.9397 98.2351C84.0409 100.539 84.0409 103.883 85.9397 106.187L89.5954 110.621C90.0966 111.23 90.4019 111.967 90.4773 112.751L91.0279 118.471C91.3142 121.443 93.6792 123.808 96.6512 124.095L100.148 124.432L91.8404 144.282C91.6153 144.823 91.7169 145.431 92.1059 145.869C92.4949 146.307 93.0859 146.481 93.6477 146.321L100.855 144.286C100.887 144.277 100.917 144.291 100.931 144.316L104.54 150.879C104.809 151.368 105.311 151.663 105.863 151.663C105.889 151.663 105.915 151.662 105.942 151.661C106.526 151.631 107.031 151.278 107.262 150.734L116.032 129.775C116.33 129.603 116.616 129.407 116.888 129.183L121.322 125.528C121.884 125.065 122.555 124.772 123.272 124.67L131.216 143.651L125.595 142.064C124.526 141.763 123.406 142.232 122.87 143.204L120.055 148.322L116.326 139.41C116.079 138.821 115.403 138.544 114.815 138.79C114.227 139.036 113.949 139.713 114.196 140.301L118.564 150.74C118.793 151.278 119.297 151.631 119.882 151.661C119.908 151.662 119.934 151.663 119.961 151.663C120.513 151.663 121.015 151.368 121.283 150.879L124.892 144.317C124.907 144.291 124.938 144.278 124.968 144.286L132.174 146.321C132.737 146.48 133.329 146.307 133.717 145.869C134.106 145.431 134.208 144.823 133.982 144.281L125.675 124.431L129.172 124.094C132.144 123.808 134.509 121.443 134.795 118.471L135.346 112.751C135.421 111.966 135.726 111.23 136.228 110.621L139.883 106.187C141.783 103.883 141.783 100.539 139.883 98.2351ZM105.769 148.322L102.953 143.203C102.418 142.231 101.297 141.762 100.228 142.064L94.6075 143.65L102.551 124.67C103.268 124.772 103.94 125.065 104.501 125.527L108.935 129.183C110.088 130.133 111.499 130.607 112.912 130.607C113.003 130.607 113.093 130.605 113.184 130.601L105.769 148.322ZM138.102 104.719L134.447 109.153C133.651 110.118 133.168 111.285 133.048 112.53L132.497 118.25C132.317 120.124 130.825 121.616 128.951 121.796L123.926 122.28C123.907 122.281 123.886 122.283 123.867 122.286L123.231 122.347C121.986 122.467 120.818 122.951 119.854 123.746L115.419 127.401C113.967 128.599 111.857 128.599 110.404 127.401L105.97 123.746C105.005 122.951 103.838 122.467 102.593 122.347L101.954 122.286C101.936 122.283 101.919 122.282 101.901 122.281L96.8728 121.796C94.9983 121.616 93.507 120.124 93.3264 118.25L92.7759 112.53C92.6559 111.285 92.1724 110.118 91.3766 109.153L87.7215 104.719C86.5236 103.266 86.5236 101.156 87.7215 99.7032L91.3766 95.269C92.1724 94.3044 92.6559 93.1368 92.7759 91.8919L93.3264 86.1717C93.507 84.2973 94.9983 82.8059 96.8728 82.6254L102.593 82.0748C103.838 81.9548 105.005 81.4714 105.97 80.6761L110.404 77.0211C111.131 76.4224 112.022 76.1225 112.912 76.1225C113.802 76.1225 114.693 76.4218 115.419 77.0211L119.854 80.6761C120.818 81.4714 121.986 81.9554 123.231 82.0748L128.951 82.6254C130.825 82.8059 132.317 84.2973 132.497 86.1717L133.048 91.8919C133.168 93.1368 133.651 94.3044 134.447 95.269L138.102 99.7032C139.3 101.157 139.3 103.266 138.102 104.719Z" fill="#F8AD4E"/>
<path d="M112.911 84.1777C112.14 84.1777 111.365 84.2264 110.604 84.3238C109.973 84.4046 109.525 84.9831 109.606 85.615C109.687 86.2476 110.266 86.6942 110.897 86.614C111.56 86.5291 112.238 86.4863 112.911 86.4863C121.582 86.4863 128.636 93.5404 128.636 102.211C128.636 110.882 121.581 117.936 112.911 117.936C104.241 117.936 97.1864 110.881 97.1864 102.211C97.1864 96.026 100.833 90.3926 106.477 87.8583C107.058 87.5976 107.318 86.914 107.057 86.3325C106.796 85.7505 106.112 85.4909 105.531 85.7522C99.0591 88.6583 94.8778 95.1185 94.8778 102.211C94.8778 112.155 102.968 120.244 112.911 120.244C122.855 120.244 130.945 112.155 130.945 102.211C130.945 92.2671 122.855 84.1777 112.911 84.1777Z" fill="#F8AD4E"/>
<path d="M101.447 100.874C100.071 102.25 100.071 104.49 101.447 105.866L106.489 110.909C107.156 111.575 108.042 111.942 108.985 111.942C109.927 111.942 110.814 111.575 111.481 110.909L122.487 99.9019C123.863 98.5252 123.863 96.286 122.487 94.9093C121.111 93.5332 118.871 93.5332 117.495 94.9093L108.985 103.42L106.439 100.874C105.063 99.498 102.823 99.498 101.447 100.874ZM108.985 106.207C109.291 106.207 109.584 106.085 109.801 105.869L119.127 96.542C119.604 96.0657 120.378 96.0663 120.855 96.542C121.331 97.0184 121.331 97.7934 120.855 98.2692L109.848 109.276C109.618 109.506 109.311 109.633 108.985 109.633C108.658 109.633 108.352 109.506 108.121 109.276L103.079 104.234C102.603 103.758 102.603 102.983 103.079 102.507C103.317 102.269 103.63 102.149 103.943 102.149C104.255 102.149 104.568 102.269 104.806 102.506L108.168 105.869C108.385 106.085 108.678 106.207 108.985 106.207Z" fill="#F8AD4E"/>
<defs>
<filter id="filter0_f" x="0.970249" y="0.970249" width="223.06" height="223.06" filterUnits="userSpaceOnUse" color-interpolation-filters="sRGB">
<feFlood flood-opacity="0" result="BackgroundImageFix"/>
<feBlend mode="normal" in="SourceGraphic" in2="BackgroundImageFix" result="shape"/>
<feGaussianBlur stdDeviation="29.0149" result="effect1_foregroundBlur"/>
</filter>
</defs>
</svg>
