<svg width="225" height="225" viewBox="0 0 225 225" fill="none" xmlns="http://www.w3.org/2000/svg">
<g filter="url(#filter0_f)">
<circle cx="112.5" cy="112.5" r="53.5" fill="#F8AD4E" fill-opacity="0.15"/>
</g>
<path d="M136.29 122.5C135.593 122.5 135.028 121.937 135.028 121.241V120.761C135.028 119.289 132.923 117.845 130.778 117.845H125.619C124.922 117.845 124.357 117.282 124.357 116.586C124.357 115.89 124.922 115.326 125.619 115.326H130.778C133.982 115.326 137.552 117.559 137.552 120.761V121.241C137.552 121.937 136.987 122.5 136.29 122.5Z" fill="#F8AD4E"/>
<path d="M131.244 107.14C131.209 107.14 131.174 107.139 131.14 107.136C130.444 107.078 129.927 106.471 129.985 105.778L130.616 98.0904C130.611 93.7514 127.249 90.1373 123.117 90.1373H116.654C112.521 90.1373 109.159 93.7514 109.159 98.1935L109.785 105.778C109.843 106.471 109.326 107.078 108.63 107.136C107.94 107.193 107.328 106.678 107.27 105.984L106.64 98.2965C106.635 92.3627 111.13 87.6187 116.654 87.6187H123.116C128.641 87.6187 133.135 92.3627 133.135 98.1935L132.5 105.984C132.446 106.642 131.894 107.14 131.244 107.14Z" fill="#F8AD4E"/>
<path d="M119.885 119.105C118.389 119.105 116.882 118.865 115.525 118.41C114.864 118.189 114.508 117.474 114.731 116.814C114.953 116.156 115.668 115.803 116.328 116.021C117.429 116.39 118.659 116.586 119.885 116.586C122.745 116.586 125.391 115.553 126.791 113.889C128.698 111.619 129.98 108.379 129.98 105.827V100.752C129.98 100.09 129.844 99.6486 129.577 99.4425C128.626 98.7031 125.604 99.4692 122.938 100.144C120.501 100.762 117.983 101.401 115.7 101.401C112.86 101.401 110.948 100.381 109.804 99.6803C109.795 99.9621 109.79 100.313 109.79 100.752V105.827C109.79 107.665 110.476 109.952 111.626 111.944C111.974 112.547 111.766 113.316 111.162 113.663C110.558 114.011 109.787 113.804 109.438 113.2C108.058 110.807 107.266 108.12 107.266 105.827V100.752C107.266 98.6101 107.314 97.3721 108.313 96.8222C109.203 96.3242 110.046 96.859 110.788 97.3238C111.774 97.945 113.265 98.8825 115.7 98.8825C117.667 98.8825 120.031 98.2822 122.317 97.7028C126.012 96.7667 129.2 95.9567 131.127 97.4535C132.041 98.1626 132.504 99.2724 132.504 100.752V105.827C132.504 108.975 131.021 112.774 128.724 115.507C126.83 117.76 123.525 119.105 119.885 119.105Z" fill="#F8AD4E"/>
<path d="M131.4 134.705C130.823 134.705 130.302 134.306 130.171 133.721C130.018 133.042 130.447 132.368 131.127 132.217L146.103 128.87C146.659 128.772 147.093 128.496 147.383 128.083C147.674 127.67 147.786 127.17 147.698 126.672C147.583 126.012 147.118 125.457 146.489 125.224C145.835 124.982 145.501 124.258 145.744 123.605C145.986 122.953 146.715 122.617 147.365 122.862C148.833 123.405 149.914 124.698 150.184 126.237C150.389 127.397 150.127 128.566 149.449 129.53C148.772 130.494 147.758 131.136 146.596 131.34L131.678 134.674C131.585 134.695 131.492 134.705 131.4 134.705Z" fill="#F8AD4E"/>
<path d="M114.328 141.774H104.741C104.65 141.774 104.558 141.765 104.468 141.745L93.1109 139.226C92.4307 139.075 92.0011 138.401 92.1527 137.723C92.3037 137.044 92.9766 136.621 93.6575 136.766L104.88 139.255H114.328C119.252 139.255 124.083 137.564 127.929 134.493C127.963 134.466 127.999 134.441 128.035 134.418L146.713 122.432C146.773 122.392 146.837 122.359 146.903 122.331C147.368 122.134 147.729 121.767 147.919 121.3C148.109 120.832 148.103 120.317 147.906 119.854C147.498 118.894 146.385 118.445 145.425 118.852L126.675 126.567C126.523 126.63 126.359 126.661 126.194 126.661H102.218C101.763 126.661 101.343 126.418 101.119 126.023C100.896 125.627 100.902 125.142 101.136 124.754L104.922 118.457C105.149 118.078 105.56 117.846 106.004 117.846H111.052C113.399 117.846 115.378 116.239 115.939 114.067H102.631L85.4165 126.667C84.8533 127.079 84.0655 126.955 83.6525 126.396C83.2409 125.835 83.3622 125.047 83.924 124.635L101.472 111.792C101.688 111.634 101.949 111.549 102.218 111.549H117.36C118.057 111.549 118.623 112.112 118.623 112.808C118.623 116.975 115.226 120.365 111.051 120.365H106.718L104.447 124.143H125.944L144.451 116.529C146.682 115.583 149.279 116.633 150.23 118.87C150.691 119.954 150.701 121.152 150.259 122.244C149.831 123.301 149.03 124.135 147.996 124.605L129.455 136.503C125.17 139.902 119.802 141.774 114.328 141.774Z" fill="#F8AD4E"/>
<path d="M87.4682 148.901C87.4011 148.901 87.3332 148.896 87.266 148.885C86.9353 148.831 86.64 148.649 86.4443 148.379L74.0535 131.224C73.8571 130.953 73.7769 130.615 73.8311 130.285C73.8845 129.956 74.0672 129.661 74.3387 129.465L82.5271 123.574C83.0939 123.172 83.8817 123.296 84.2889 123.859L96.6797 141.013C97.0877 141.577 96.9599 142.364 96.3945 142.771L88.2062 148.664C87.9903 148.819 87.7311 148.901 87.4682 148.901ZM76.8385 130.773L87.7542 145.883L93.8954 141.464L82.9798 126.354L76.8385 130.773Z" fill="#F8AD4E"/>
<path d="M90.8605 140.515C90.8605 141.906 89.7305 143.034 88.3369 143.034C86.9433 143.034 85.8132 141.906 85.8132 140.515C85.8132 139.123 86.9433 137.996 88.3369 137.996C89.7305 137.996 90.8605 139.123 90.8605 140.515Z" fill="#F8AD4E"/>
<path d="M119.885 83.8404C119.187 83.8404 118.623 83.2776 118.623 82.5815V77.5434C118.623 76.8473 119.187 76.2844 119.885 76.2844C120.582 76.2844 121.146 76.8473 121.146 77.5434V82.5815C121.146 83.2776 120.582 83.8404 119.885 83.8404Z" fill="#F8AD4E"/>
<path d="M124.933 83.8401C124.61 83.8401 124.287 83.7176 124.041 83.4711C123.548 82.9796 123.548 82.1826 124.041 81.6904L128.457 77.2822C128.951 76.7907 129.749 76.7907 130.242 77.2822C130.735 77.7744 130.735 78.5714 130.242 79.0636L125.825 83.4711C125.578 83.7176 125.256 83.8401 124.933 83.8401Z" fill="#F8AD4E"/>
<path d="M114.837 83.8406C114.514 83.8406 114.191 83.7181 113.945 83.4717L110.159 79.6933C109.666 79.2018 109.666 78.4048 110.159 77.9126C110.652 77.4211 111.45 77.4211 111.944 77.9126L115.729 81.6909C116.222 82.1831 116.222 82.9802 115.729 83.4717C115.482 83.7181 115.16 83.8406 114.837 83.8406Z" fill="#F8AD4E"/>
<defs>
<filter id="filter0_f" x="0.970249" y="0.970249" width="223.06" height="223.06" filterUnits="userSpaceOnUse" color-interpolation-filters="sRGB">
<feFlood flood-opacity="0" result="BackgroundImageFix"/>
<feBlend mode="normal" in="SourceGraphic" in2="BackgroundImageFix" result="shape"/>
<feGaussianBlur stdDeviation="29.0149" result="effect1_foregroundBlur"/>
</filter>
</defs>
</svg>
