<svg width="16" height="11" viewBox="0 0 16 11" fill="none" xmlns="http://www.w3.org/2000/svg">
<path d="M15.1794 0H0.82053C0.369218 0 0 0.380756 0 0.846139V10.1538C0 10.6192 0.369218 11 0.82053 11H15.1795C15.6307 11 16 10.6192 16 10.1538V0.846139C16 0.380756 15.6308 0 15.1794 0ZM14.8715 0.634572L8.47198 5.58463C8.35692 5.67493 8.1803 5.73142 7.99995 5.73058C7.81964 5.73142 7.64305 5.67493 7.52795 5.58463L1.1284 0.634572H14.8715ZM11.4531 5.91124L14.9403 10.3536C14.9438 10.358 14.9481 10.3614 14.9518 10.3654H1.04819C1.05187 10.3612 1.05619 10.358 1.05969 10.3536L4.54687 5.91124C4.65371 5.77502 4.63346 5.57531 4.50112 5.46487C4.36902 5.35469 4.17537 5.37557 4.06849 5.51183L0.615374 9.91078V1.03122L7.15892 6.09226C7.40489 6.28117 7.70414 6.36432 7.99992 6.36515C8.2953 6.36451 8.5948 6.28136 8.84092 6.09226L15.3845 1.03122V9.91071L11.9314 5.51183C11.8246 5.37561 11.6307 5.35466 11.4988 5.46487C11.3665 5.57506 11.3462 5.77502 11.4531 5.91124Z" fill="#5371AB"/>
</svg>
