<svg width="231" height="245" viewBox="0 0 231 245" fill="none" xmlns="http://www.w3.org/2000/svg">
<path fill-rule="evenodd" clip-rule="evenodd" d="M127.74 59.6577C127.953 59.8818 127.945 60.2366 127.721 60.4502C124.364 63.6567 117.678 67.3609 110.977 70.3723C104.274 73.385 97.4266 75.7621 93.708 76.2594C90.2014 76.7283 86.3164 78.7498 83.9829 81.0449C82.8109 82.1975 82.0979 83.353 81.9492 84.3497C81.8768 84.8354 81.9379 85.2809 82.1419 85.6878C82.3476 86.0981 82.7175 86.5063 83.3212 86.881C83.9034 87.2423 84.7399 87.5108 85.8108 87.6811C86.8753 87.8503 88.1347 87.9171 89.5361 87.8997C92.3389 87.865 95.6588 87.4945 99.0243 86.9712C105.382 85.9828 111.84 84.4596 115.174 83.6734C115.369 83.6274 115.553 83.584 115.726 83.5434C122.064 82.0524 131.522 81.4853 144.325 83.5355C150.071 84.4558 153.458 84.5075 156.821 83.7677C159.628 83.1503 162.429 81.9824 166.581 80.2507C167.459 79.885 168.396 79.494 169.407 79.0778C172.223 77.918 175.135 76.0214 178.219 73.8293C179.216 73.1211 180.232 72.381 181.266 71.6272C183.415 70.0621 185.644 68.438 187.95 66.9176C194.794 62.4039 202.495 58.6724 211.441 59.7363C211.748 59.7728 211.967 60.0516 211.931 60.359C211.894 60.6664 211.616 60.8861 211.309 60.8496C202.765 59.8335 195.346 63.382 188.564 67.8541C186.28 69.3606 184.089 70.9571 181.953 72.5134C180.912 73.2714 179.885 74.0198 178.866 74.7438C175.775 76.9407 172.774 78.9028 169.832 80.1147C168.84 80.5233 167.914 80.9095 167.043 81.273C162.888 83.0065 159.974 84.2219 157.061 84.8627C153.5 85.6459 149.955 85.5724 144.148 84.6426C131.456 82.6101 122.148 83.184 115.981 84.6348C115.808 84.6756 115.623 84.7192 115.427 84.7655C112.094 85.5514 105.598 87.0837 99.1957 88.079C95.8075 88.6058 92.4287 88.985 89.5499 89.0207C88.1104 89.0386 86.7832 88.9708 85.6355 88.7883C84.4943 88.6068 83.4932 88.3063 82.7324 87.8342C81.9932 87.3754 81.4602 86.8247 81.1425 86.1912C80.8232 85.5543 80.7405 84.8712 80.843 84.1839C81.0443 82.8348 81.9564 81.4674 83.1995 80.2447C85.696 77.7893 89.8005 75.6509 93.5601 75.1481C97.1077 74.6737 103.83 72.356 110.519 69.3494C117.212 66.3415 123.743 62.7018 126.95 59.6386C127.173 59.4251 127.527 59.4336 127.74 59.6577Z" fill="white"/>
<path fill-rule="evenodd" clip-rule="evenodd" d="M190.858 36.2626C191.008 36.5333 190.91 36.8745 190.64 37.0248C186.169 39.5137 179.113 42.8468 172.307 45.609C168.903 46.9906 165.554 48.2325 162.616 49.1556C159.69 50.075 157.13 50.6917 155.322 50.7984C151.788 51.0072 143.946 50.1955 136.106 49.2417C132.347 48.7844 128.581 48.2934 125.259 47.8603C121.613 47.385 118.501 46.9792 116.517 46.764C114.698 46.5665 111.778 46.7737 108.26 47.3347C104.755 47.8935 100.701 48.7963 96.6341 49.9657C92.5667 51.1354 88.497 52.5689 84.9588 54.1862C81.4115 55.8078 78.4374 57.5967 76.528 59.4624C72.6241 63.277 67.0697 71.073 62.3524 78.4424C59.9989 82.1189 57.8636 85.6739 56.2579 88.5502C55.4549 89.9887 54.7866 91.2534 54.2905 92.2762C53.7876 93.3129 53.481 94.0623 53.3759 94.4873C53.2754 94.8937 53.2965 95.1988 53.3769 95.427C53.4561 95.6521 53.6082 95.8462 53.8475 96.009C54.3478 96.3492 55.2049 96.5307 56.3319 96.4645C58.565 96.3333 61.5054 95.2484 63.7309 93.303C64.8498 92.3249 66.529 90.3825 68.6055 87.8984C69.1242 87.2778 69.6663 86.6252 70.2285 85.9485C71.9006 83.9357 73.75 81.7094 75.6892 79.4772C78.2812 76.4936 81.0457 73.4853 83.7857 70.9376C86.5191 68.396 89.2595 66.2827 91.8049 65.1207C96.8889 62.7997 103.271 63.0965 108.311 63.9361C110.843 64.3579 113.062 64.9216 114.649 65.3796C115.442 65.6088 116.079 65.8118 116.518 65.958C116.737 66.031 116.907 66.0899 117.023 66.1308C117.081 66.1512 117.126 66.1671 117.156 66.178L117.191 66.1906L117.2 66.194L117.203 66.1949L117.203 66.1952C117.204 66.1953 117.204 66.1954 117.01 66.7213L117.204 66.1954C117.494 66.3025 117.642 66.6248 117.535 66.9153C117.428 67.2057 117.107 67.3543 116.817 67.2472M116.817 67.2472L116.815 67.2465L116.808 67.2439L116.777 67.2327C116.75 67.2228 116.708 67.2079 116.653 67.1885C116.542 67.1496 116.378 67.0928 116.165 67.0219C115.739 66.8799 115.117 66.6814 114.339 66.4569C112.783 66.0076 110.607 65.4551 108.127 65.042C103.143 64.2116 97.0387 63.9631 92.2685 66.1409C89.8867 67.2282 87.2508 69.2448 84.5464 71.7594C81.8486 74.2679 79.1139 77.2422 76.5327 80.2133C74.6024 82.4353 72.7647 84.6475 71.0943 86.6583C70.5305 87.3371 69.9857 87.9929 69.4628 88.6184C67.4059 91.0791 65.6654 93.0995 64.4661 94.1479C62.055 96.2555 58.8794 97.4378 56.3974 97.5836C55.1667 97.656 54.0165 97.4785 53.2196 96.9367C52.8103 96.6584 52.4914 96.2808 52.3221 95.8001C52.154 95.3225 52.1492 94.7879 52.2903 94.2175C52.4268 93.6657 52.7825 92.8211 53.2846 91.786C53.7934 90.7371 54.4727 89.4522 55.2818 88.0028C56.9005 85.1033 59.0478 81.5287 61.411 77.837C66.127 70.4697 71.7417 62.5736 75.7472 58.6596C77.7927 56.661 80.903 54.8081 84.4947 53.1663C88.0956 51.5203 92.2197 50.0689 96.3256 48.8882C100.432 47.7072 104.531 46.7941 108.084 46.2275C111.623 45.6631 114.665 45.4353 116.638 45.6494C118.625 45.8652 121.761 46.2739 125.424 46.7513C128.749 47.1848 132.51 47.6749 136.241 48.1288C144.124 49.0878 151.847 49.8807 155.256 49.6793C156.919 49.5811 159.369 49.001 162.281 48.0859C165.182 47.1746 168.501 45.9443 171.887 44.5699C178.662 41.8201 185.675 38.5061 190.097 36.0447C190.367 35.8944 190.708 35.992 190.858 36.2626" fill="white"/>
<path fill-rule="evenodd" clip-rule="evenodd" d="M90.9939 65.8599C91.2689 66.0009 91.3778 66.3386 91.2372 66.6142C89.4577 70.102 88.2991 73.8744 87.8138 77.7615C87.7755 78.0687 87.4959 78.2866 87.1894 78.2481C86.883 78.2097 86.6656 77.9295 86.704 77.6223C87.2055 73.6058 88.4026 69.7078 90.2414 66.1038C90.382 65.8282 90.7189 65.719 90.9939 65.8599Z" fill="white"/>
<path fill-rule="evenodd" clip-rule="evenodd" d="M107.256 64.2467C107.386 64.5273 107.265 64.8608 106.985 64.9916C105.283 65.7869 103.731 67.4707 102.479 69.2734C101.236 71.0633 100.338 72.9001 99.9226 73.9088C99.8048 74.1949 99.4778 74.3311 99.1923 74.213C98.9068 74.0949 98.7709 73.7671 98.8888 73.481C99.3301 72.4097 100.265 70.4995 101.561 68.6331C102.848 66.7795 104.539 64.8976 106.513 63.9755C106.793 63.8447 107.125 63.9661 107.256 64.2467Z" fill="white"/>
<path fill-rule="evenodd" clip-rule="evenodd" d="M57.2295 161.036C56.3709 161.271 55.6363 161.436 55.1421 161.436C51.5935 161.436 48.3012 161.461 45.2149 161.485C28.6152 161.613 17.9742 161.695 5.45798 157.545C5.16475 157.448 5.00567 157.131 5.10266 156.837C5.19966 156.543 5.51601 156.383 5.80924 156.481C18.1374 160.568 28.5726 160.489 45.1719 160.363C48.264 160.34 51.5701 160.315 55.1421 160.315C55.4631 160.315 56.0566 160.195 56.934 159.954C57.7904 159.719 58.8521 159.388 60.0781 159.004L60.3321 158.924C62.7334 158.17 65.7042 157.238 68.8521 156.467C72.1102 155.669 75.5805 155.039 78.8312 154.961C82.0751 154.883 85.1573 155.353 87.5945 156.812C96.7983 162.32 106.79 166.095 114.045 166.095C114.258 166.095 114.555 166.094 114.926 166.091C117.519 166.076 123.726 166.04 130.039 166.427C133.646 166.649 137.304 167.01 140.353 167.596C141.876 167.889 143.261 168.241 144.417 168.666C145.562 169.087 146.53 169.597 147.177 170.231C147.798 170.839 148.198 171.492 148.37 172.18C148.542 172.87 148.474 173.555 148.225 174.203C147.734 175.475 146.547 176.611 145.068 177.533C142.098 179.385 137.628 180.576 133.85 180.241C130.242 179.921 123.47 179.92 116.705 180.989C113.324 181.524 109.962 182.323 107.004 183.475C104.043 184.628 101.522 186.123 99.7898 188.027C99.5817 188.255 99.228 188.272 98.9997 188.063C98.7715 187.854 98.7552 187.5 98.9634 187.271C100.855 185.192 103.549 183.618 106.599 182.43C109.654 181.24 113.1 180.424 116.531 179.882C123.39 178.798 130.254 178.797 133.948 179.124C137.472 179.437 141.701 178.312 144.477 176.581C145.872 175.712 146.819 174.739 147.181 173.799C147.358 173.341 147.395 172.893 147.285 172.452C147.174 172.007 146.902 171.529 146.395 171.033C145.914 170.562 145.119 170.119 144.031 169.718C142.953 169.322 141.632 168.984 140.142 168.697C137.162 168.124 133.557 167.767 129.97 167.546C123.701 167.161 117.536 167.197 114.936 167.213C114.562 167.215 114.262 167.216 114.045 167.216C106.489 167.216 96.2866 163.32 87.0211 157.774C84.8409 156.47 82.0014 156.006 78.858 156.082C75.7214 156.157 72.3389 156.768 69.1175 157.556C66.0051 158.318 63.064 159.241 60.6585 159.996L60.4121 160.073C59.1912 160.457 58.109 160.794 57.2295 161.036Z" fill="white"/>
<path fill-rule="evenodd" clip-rule="evenodd" d="M166.377 166.487C167.791 165.711 169.34 165.163 170.574 165.231C172.349 165.326 173.659 166.311 174.321 167.657C174.973 168.983 174.991 170.641 174.266 172.122C174.188 172.327 174.05 172.566 173.894 172.807C173.723 173.072 173.506 173.377 173.259 173.705C172.765 174.362 172.137 175.131 171.489 175.892C170.203 177.4 168.796 178.921 168.169 179.473C167.679 179.91 165.899 181.272 165.333 181.699C165.109 181.868 164.725 182.16 164.303 182.48C163.654 182.973 162.915 183.534 162.539 183.815C162.123 184.129 160.799 185.254 159.556 186.321C158.94 186.851 158.35 187.36 157.915 187.737L157.769 187.863C157.617 187.995 157.489 188.105 157.393 188.188L157.199 188.357C157.199 188.357 157.199 188.357 156.832 187.934C157.175 188.377 157.175 188.377 157.175 188.377L157.174 188.378L157.041 188.481C156.955 188.548 156.831 188.643 156.679 188.761C156.375 188.996 155.958 189.318 155.507 189.665C154.607 190.357 153.563 191.154 153.011 191.558C150.666 193.275 147.935 194.804 145.799 195.902C144.73 196.451 143.805 196.895 143.148 197.201C142.819 197.354 142.556 197.473 142.376 197.553C142.286 197.594 142.216 197.625 142.168 197.646C142.146 197.655 142.129 197.663 142.117 197.668C135.885 201.02 127.187 203.085 120.089 204.314C116.527 204.931 113.352 205.34 111.067 205.594C109.924 205.722 109.004 205.81 108.368 205.867C108.05 205.896 107.804 205.917 107.636 205.93C107.616 205.932 107.597 205.933 107.58 205.935C107.523 205.939 107.478 205.943 107.445 205.945L107.396 205.949L107.38 205.95L107.379 205.95C107.379 205.95 107.379 205.95 107.339 205.391L107.379 205.95C107.365 205.951 107.352 205.951 107.339 205.951C99.2282 205.951 91.8783 203.314 85.2409 200.713C84.6133 200.467 83.9925 200.222 83.3784 199.979C80.7328 198.933 78.2088 197.935 75.7774 197.149C72.7846 196.182 69.9751 195.552 67.3169 195.552C67.2858 195.552 67.2548 195.549 67.2242 195.544C63.8621 194.978 56.4915 194.975 48.7001 195.485C40.9154 195.994 32.8155 197.008 27.9993 198.437C27.7032 198.525 27.392 198.356 27.3043 198.059C27.2166 197.762 27.3856 197.45 27.6817 197.363C32.6249 195.895 40.8302 194.876 48.6273 194.366C56.3838 193.859 63.8403 193.848 67.3634 194.431C70.1753 194.438 73.0963 195.105 76.1207 196.083C78.5893 196.88 81.1551 197.895 83.8029 198.942C84.4137 199.183 85.0288 199.426 85.6481 199.669C92.2759 202.266 99.4457 204.826 107.318 204.83L107.36 204.827C107.402 204.824 107.464 204.819 107.547 204.813C107.711 204.799 107.954 204.779 108.268 204.751C108.897 204.694 109.809 204.606 110.943 204.48C113.211 204.227 116.364 203.822 119.898 203.21C126.984 201.983 135.542 199.937 141.608 196.669C141.622 196.662 141.637 196.655 141.652 196.648L141.668 196.641C141.679 196.636 141.696 196.629 141.719 196.619C141.764 196.599 141.832 196.569 141.92 196.53C142.096 196.451 142.353 196.335 142.676 196.184C143.323 195.883 144.235 195.446 145.289 194.904C147.402 193.818 150.075 192.319 152.352 190.652L152.353 190.651C152.891 190.258 153.923 189.47 154.826 188.776C155.276 188.43 155.692 188.108 155.996 187.874C156.147 187.756 156.271 187.66 156.357 187.594L156.478 187.5L156.662 187.341C156.787 187.232 156.966 187.077 157.184 186.888C157.62 186.511 158.211 186.001 158.829 185.47C160.054 184.417 161.416 183.259 161.868 182.919L161.87 182.918C162.244 182.638 162.972 182.085 163.618 181.594C164.041 181.272 164.43 180.977 164.66 180.803C165.244 180.363 166.982 179.031 167.426 178.634L167.43 178.631C167.989 178.14 169.35 176.675 170.639 175.163C171.279 174.413 171.891 173.662 172.366 173.03C172.604 172.714 172.804 172.432 172.955 172.198C173.113 171.954 173.195 171.795 173.224 171.713C173.231 171.692 173.24 171.671 173.251 171.65C173.839 170.465 173.815 169.163 173.318 168.153C172.827 167.155 171.869 166.423 170.514 166.351L170.513 166.351C169.594 166.3 168.269 166.726 166.914 167.471L166.911 167.473C165.602 168.182 163.45 169.729 160.75 171.725C160.157 172.164 159.539 172.622 158.9 173.097C156.647 174.77 154.13 176.639 151.514 178.495C148.157 180.877 144.625 183.247 141.259 185.167C137.902 187.081 134.672 188.57 131.925 189.159C126.453 190.334 120.116 188.984 115.202 187.379C112.734 186.573 110.604 185.696 109.09 185.02C108.332 184.682 107.728 184.393 107.313 184.189C107.105 184.087 106.944 184.006 106.835 183.95C106.78 183.922 106.739 183.901 106.71 183.886L106.678 183.869L106.669 183.864L106.667 183.863L106.666 183.863C106.666 183.863 106.666 183.863 106.927 183.367L106.666 183.863C106.392 183.718 106.288 183.379 106.432 183.105C106.576 182.831 106.914 182.727 107.188 182.871L107.196 182.876L107.225 182.891C107.251 182.904 107.291 182.925 107.343 182.951C107.447 183.005 107.603 183.083 107.805 183.183C108.21 183.381 108.801 183.664 109.545 183.996C111.033 184.66 113.126 185.522 115.549 186.313C120.414 187.902 126.518 189.174 131.691 188.063C134.268 187.51 137.378 186.09 140.706 184.192C144.025 182.299 147.523 179.953 150.868 177.58C153.473 175.732 155.977 173.872 158.229 172.2C158.869 171.724 159.489 171.264 160.086 170.823C162.76 168.846 164.983 167.243 166.377 166.487ZM156.832 187.934L157.175 188.377C157.183 188.371 157.191 188.364 157.199 188.357L156.832 187.934Z" fill="white"/>
<path fill-rule="evenodd" clip-rule="evenodd" d="M134.648 179.562C134.844 179.802 134.809 180.155 134.57 180.351C133.033 181.612 131.908 182.644 130.928 183.544C128.643 185.64 127.141 187.019 123.028 188.901C122.747 189.03 122.416 188.906 122.287 188.624C122.159 188.343 122.283 188.01 122.564 187.882C126.51 186.075 127.865 184.831 130.083 182.794C131.07 181.887 132.228 180.823 133.861 179.483C134.1 179.287 134.453 179.322 134.648 179.562Z" fill="white"/>
<path fill-rule="evenodd" clip-rule="evenodd" d="M156.364 158.684C155.036 160.355 153.772 161.942 152.67 163.158C152.667 163.161 152.664 163.164 152.661 163.167C150.401 165.545 147.9 167.68 145.199 169.539C144.945 169.714 144.597 169.65 144.422 169.394C144.247 169.139 144.312 168.79 144.566 168.615C147.201 166.801 149.641 164.718 151.846 162.399C152.918 161.216 154.157 159.663 155.489 157.986C155.541 157.921 155.592 157.856 155.644 157.792C156.928 156.175 158.29 154.46 159.646 152.894C161.053 151.268 162.472 149.78 163.81 148.72C165.12 147.681 166.473 146.952 167.723 147.068C167.816 147.077 167.905 147.109 167.982 147.16C169.79 148.371 170.587 149.944 170.674 151.681C170.759 153.378 170.164 155.18 169.314 156.899C168.46 158.626 167.318 160.329 166.244 161.839C165.887 162.34 165.541 162.817 165.214 163.266C164.543 164.189 163.956 164.995 163.538 165.664C162.234 167.749 159.283 170.913 156.703 173.518C155.405 174.83 154.186 176.014 153.292 176.87C152.845 177.298 152.479 177.645 152.225 177.884C152.097 178.004 151.998 178.097 151.93 178.16C151.897 178.192 151.871 178.216 151.853 178.232L151.826 178.257C151.826 178.257 151.826 178.257 151.446 177.846C151.066 177.434 151.066 177.434 151.066 177.434L151.067 177.434L151.092 177.411C151.1 177.403 151.11 177.394 151.121 177.383C151.135 177.371 151.15 177.357 151.168 177.34C151.234 177.278 151.333 177.186 151.459 177.067C151.711 176.829 152.075 176.485 152.519 176.06C153.408 175.208 154.619 174.031 155.909 172.729C158.506 170.106 161.364 167.03 162.591 165.068C163.03 164.366 163.655 163.506 164.342 162.561C164.663 162.119 164.998 161.659 165.333 161.188C166.4 159.689 167.499 158.045 168.312 156.401C169.129 154.749 169.628 153.153 169.557 151.738C169.49 150.401 168.914 149.18 167.485 148.177C166.716 148.166 165.715 148.638 164.504 149.599C163.249 150.594 161.885 152.018 160.491 153.629C159.151 155.176 157.802 156.875 156.513 158.497C156.463 158.559 156.414 158.622 156.364 158.684ZM151.036 178.227C150.826 177.999 150.84 177.645 151.066 177.434L151.446 177.846L151.826 178.257C151.6 178.467 151.246 178.454 151.036 178.227Z" fill="white"/>
<path fill-rule="evenodd" clip-rule="evenodd" d="M121.514 179.632C121.711 179.871 121.677 180.224 121.438 180.421C121.113 180.689 120.722 181.068 120.252 181.522C120.137 181.634 120.017 181.749 119.893 181.869C119.271 182.467 118.551 183.143 117.757 183.775C116.186 185.027 114.243 186.179 112.117 186.153C111.808 186.149 111.561 185.895 111.564 185.585C111.568 185.276 111.822 185.028 112.131 185.032C113.858 185.053 115.542 184.108 117.061 182.898C117.812 182.299 118.502 181.653 119.118 181.06C119.234 180.95 119.347 180.84 119.458 180.732C119.931 180.275 120.365 179.855 120.727 179.556C120.965 179.359 121.318 179.393 121.514 179.632Z" fill="white"/>
<path fill-rule="evenodd" clip-rule="evenodd" d="M153.452 149.067C153.028 148.916 152.415 148.86 151.55 148.981C149.875 149.216 148.264 150.178 146.675 151.619C145.088 153.058 143.569 154.93 142.073 156.91C141.572 157.573 141.072 158.25 140.574 158.925C139.596 160.25 138.624 161.566 137.662 162.752C136.209 164.543 134.719 166.112 133.16 167.034C132.894 167.191 132.551 167.103 132.394 166.836C132.237 166.57 132.326 166.226 132.592 166.069C133.969 165.254 135.355 163.818 136.794 162.045C137.741 160.878 138.685 159.599 139.652 158.288C140.155 157.608 140.663 156.919 141.181 156.233C142.684 154.245 144.255 152.301 145.925 150.787C147.592 149.276 149.404 148.15 151.395 147.871C152.363 147.735 153.174 147.778 153.827 148.011C154.496 148.25 154.975 148.68 155.266 149.253C155.82 150.343 155.638 151.841 155.201 153.306C154.311 156.29 152.151 159.804 150.773 161.55C149.433 163.249 148.003 165.244 146.906 166.819C146.358 167.605 145.894 168.285 145.567 168.768C145.404 169.009 145.275 169.202 145.187 169.333C145.142 169.399 145.109 169.45 145.086 169.484L145.052 169.535L145.052 169.536L144.586 169.226C144.12 168.915 144.12 168.915 144.12 168.915L144.121 168.915L144.155 168.862C144.179 168.827 144.213 168.776 144.258 168.709C144.347 168.576 144.477 168.382 144.641 168.139C144.97 167.652 145.437 166.968 145.989 166.177C147.091 164.596 148.535 162.579 149.895 160.855C151.218 159.179 153.293 155.79 154.13 152.985C154.556 151.554 154.611 150.435 154.269 149.761C154.112 149.451 153.859 149.213 153.452 149.067ZM144.276 169.693C144.019 169.521 143.949 169.173 144.12 168.915L144.586 169.226L145.052 169.536C144.881 169.793 144.534 169.864 144.276 169.693Z" fill="white"/>
<path fill-rule="evenodd" clip-rule="evenodd" d="M124.23 89.4696C114.89 87.4835 105.144 89.2802 97.1204 94.4678C89.0963 99.6553 83.4444 107.813 81.3976 117.161L81.3975 117.161C80.3846 121.776 80.293 126.546 81.1281 131.196C81.9631 135.847 83.7084 140.285 86.2631 144.256C88.8178 148.227 92.1316 151.652 96.0132 154.334C99.8949 157.015 104.268 158.9 108.88 159.879L108.88 159.879C118.222 161.865 127.969 160.067 135.993 154.877C144.017 149.687 149.668 141.526 151.712 132.176L151.712 132.176C152.724 127.562 152.814 122.793 151.978 118.144C151.142 113.495 149.397 109.058 146.842 105.088C144.287 101.118 140.974 97.6945 137.093 95.0139C133.213 92.3334 128.841 90.449 124.23 89.4696L124.23 89.4696ZM124.476 88.3068C114.829 86.2557 104.765 88.1113 96.4776 93.4689C88.1904 98.8266 82.3533 107.252 80.2393 116.906C79.1928 121.674 79.0982 126.602 79.961 131.407C80.8238 136.211 82.6269 140.798 85.2665 144.9C87.9061 149.003 91.3298 152.542 95.3403 155.312C99.3508 158.083 103.869 160.03 108.634 161.042C118.282 163.093 128.348 161.235 136.636 155.875C144.923 150.515 150.759 142.087 152.871 132.431C153.915 127.664 154.009 122.737 153.145 117.933C152.281 113.13 150.478 108.545 147.839 104.444C145.199 100.342 141.776 96.8048 137.766 94.0352C133.757 91.2657 129.24 89.3188 124.476 88.3068ZM108.634 161.042L108.757 160.461L108.634 161.042ZM124.353 88.8883L124.353 88.8882L124.353 88.8883Z" fill="#FFCD6D"/>
<path d="M100.786 92.1777C103.465 95.6815 106.466 98.9247 109.751 101.864C112.915 104.741 116.273 107.409 119.694 109.959C122.828 112.294 126.056 114.52 129.395 116.549C132.73 118.597 136.203 120.412 139.788 121.981C143.348 123.537 147.041 124.767 150.823 125.654C151.3 125.764 151.78 125.868 152.257 125.966C152.329 125.982 152.403 125.982 152.475 125.967C152.546 125.951 152.614 125.92 152.672 125.876C152.778 125.796 152.85 125.68 152.877 125.55C152.91 125.422 152.894 125.286 152.833 125.169C152.797 125.104 152.747 125.047 152.686 125.003C152.626 124.96 152.556 124.93 152.483 124.917C148.729 124.138 145.057 123.008 141.514 121.541C137.96 120.064 134.515 118.339 131.203 116.377C127.835 114.404 124.607 112.235 121.47 109.947C118.114 107.495 114.836 104.928 111.711 102.188L111.616 102.301L111.711 102.188C108.417 99.3438 105.38 96.2126 102.636 92.8314C102.308 92.4194 101.984 92.0004 101.664 91.5745C101.579 91.4612 101.454 91.3853 101.315 91.3626C101.176 91.3398 101.033 91.3721 100.917 91.4527C100.806 91.5199 100.724 91.6257 100.686 91.7498C100.668 91.8204 100.666 91.8942 100.682 91.9653C100.697 92.0365 100.729 92.1031 100.775 92.1599L100.786 92.1777Z" fill="#FFCD6D" stroke="#FFCD6D" stroke-width="0.5"/>
<path d="M82.8246 110.879C85.4986 114.377 88.493 117.616 91.7687 120.554C94.9349 123.433 98.2908 126.099 101.712 128.651C104.848 130.987 108.074 133.209 111.415 135.239C114.745 137.287 118.212 139.103 121.791 140.674C125.357 142.233 129.058 143.465 132.846 144.355C133.113 144.355 137.622 145.294 141.334 145.841C143.077 146.102 144.686 146.512 145.534 146.599C145.967 146.643 146.24 145.942 146.231 145.924C146.166 145.802 134.669 143.642 134.509 143.606C130.755 142.828 127.083 141.698 123.54 140.231C119.986 138.755 116.54 137.029 113.229 135.066C109.894 133.099 106.657 130.927 103.517 128.636C100.164 126.182 96.8826 123.615 93.7609 120.875L93.6631 120.988L93.7609 120.875C90.4678 118.032 87.4321 114.903 84.6893 111.524C84.3592 111.108 84.0351 110.689 83.7169 110.267C83.6539 110.186 83.5698 110.124 83.4738 110.087C83.3779 110.05 83.2737 110.041 83.1728 110.06C83.0718 110.078 82.9779 110.124 82.9014 110.193C82.8248 110.262 82.7685 110.35 82.7386 110.448C82.7209 110.519 82.7197 110.594 82.7351 110.665C82.7505 110.737 82.7821 110.804 82.8275 110.861L82.8246 110.879Z" fill="#FFCD6D" stroke="#FFCD6D" stroke-width="0.5"/>
<path d="M96.1982 94.9552C99.3347 98.2237 102.584 101.391 105.981 104.41C109.379 107.429 112.853 110.267 116.511 112.932C120.029 115.499 123.691 117.861 127.48 120.004C131.134 122.07 134.917 123.898 138.805 125.477C142.722 127.067 146.75 128.369 150.856 129.373C151.366 129.498 151.878 129.617 152.392 129.73C152.495 129.752 152.602 129.733 152.691 129.677C152.78 129.621 152.844 129.531 152.867 129.428C152.891 129.326 152.874 129.217 152.818 129.128C152.763 129.038 152.675 128.973 152.573 128.948C148.479 128.03 144.459 126.809 140.545 125.296C136.648 123.787 132.853 122.024 129.185 120.019C125.422 117.967 121.782 115.695 118.284 113.214C114.616 110.605 111.081 107.811 107.695 104.844C104.309 101.873 101.051 98.7734 97.9117 95.5584C97.5204 95.1572 97.129 94.7501 96.7407 94.346C96.3523 93.9419 95.8513 94.5867 96.1922 94.9403L96.1982 94.9552Z" fill="#FFCD6D"/>
<path d="M92.1866 97.5082C95.2065 101.337 98.5116 104.931 102.073 108.259C105.608 111.549 109.362 114.595 113.309 117.375C117.202 120.132 121.261 122.644 125.464 124.899C127.591 126.058 129.787 127.087 132.039 127.98C134.352 128.871 136.688 129.564 139.021 130.283L146.246 132.529L149.871 133.643L150.779 133.923C151.04 134.03 151.314 134.104 151.594 134.143C151.703 134.157 151.814 134.133 151.908 134.075C152.002 134.017 152.074 133.929 152.111 133.825C152.148 133.721 152.148 133.607 152.112 133.503C152.075 133.398 152.005 133.31 151.911 133.251C151.54 132.954 151.054 133.189 151.238 133.676C151.422 134.163 152.08 133.955 151.896 133.468V133.43V133.727V133.703L151.706 133.89L151.463 133.361L151.386 133.34C151.313 133.311 151.238 133.287 151.161 133.269L150.764 133.147L149.916 132.886L148.214 132.363L144.817 131.317L137.954 129.198C135.781 128.53 133.602 127.867 131.458 126.993C129.331 126.106 127.253 125.104 125.233 123.992C121.302 121.865 117.498 119.509 113.843 116.935C110.135 114.326 106.597 111.482 103.25 108.422C99.8638 105.327 96.7033 101.993 93.7934 98.4441C93.4288 97.9984 93.073 97.5527 92.7173 97.1011C92.3615 96.6494 91.8279 97.0832 92.1629 97.4963L92.1866 97.5082Z" fill="#FFCD6D"/>
<path d="M87.8141 103.258C91.3716 106.847 94.9054 110.436 98.6586 113.776C100.529 115.437 102.447 117.045 104.428 118.531C106.408 120.016 108.54 121.446 110.671 122.762C114.593 125.19 118.586 127.486 122.657 129.596C126.655 131.682 130.769 133.534 134.981 135.144C139.121 136.73 143.384 137.971 147.728 138.855C148.253 138.959 148.775 139.057 149.299 139.152C149.346 139.166 149.395 139.17 149.443 139.164C149.491 139.157 149.537 139.141 149.578 139.117C149.619 139.092 149.655 139.059 149.683 139.02C149.711 138.981 149.731 138.937 149.741 138.891C149.752 138.84 149.752 138.787 149.741 138.736C149.733 138.684 149.714 138.635 149.685 138.591C149.66 138.545 149.625 138.504 149.584 138.472C149.544 138.438 149.498 138.414 149.448 138.4C145.128 137.622 140.882 136.48 136.753 134.989C132.554 133.47 128.45 131.696 124.465 129.676C120.442 127.659 116.502 125.43 112.625 123.089C110.469 121.784 108.332 120.447 106.269 118.973C104.259 117.535 102.32 115.984 100.437 114.362C96.6515 111.108 93.1029 107.569 89.5929 104.021L88.3033 102.717C87.9357 102.351 87.4406 102.892 87.8141 103.258Z" fill="#FFCD6D"/>
<path d="M84.3182 107.29C87.7808 111.382 91.9105 114.817 96.1765 118.014C100.036 120.912 103.989 123.673 108.035 126.298C111.99 128.845 116.054 131.248 120.252 133.394C124.418 135.544 128.725 137.41 133.142 138.98C137.541 140.541 142.067 141.714 146.669 142.486C147.238 142.578 147.814 142.665 148.383 142.745C148.435 142.748 148.486 142.739 148.534 142.718C148.582 142.699 148.627 142.671 148.664 142.635C148.7 142.597 148.729 142.554 148.75 142.507C148.769 142.459 148.779 142.407 148.78 142.356C148.78 142.303 148.77 142.25 148.75 142.201C148.731 142.153 148.703 142.108 148.667 142.07C148.63 142.035 148.587 142.005 148.54 141.984C148.492 141.963 148.441 141.952 148.389 141.951C143.803 141.285 139.286 140.21 134.891 138.739C130.501 137.267 126.218 135.49 122.075 133.421C117.879 131.325 113.792 129.015 109.831 126.5C105.862 123.995 101.999 121.321 98.2132 118.543C93.9471 115.42 89.77 112.127 86.1888 108.217C85.7412 107.727 85.2995 107.234 84.8844 106.731C84.5554 106.339 83.995 106.904 84.33 107.293L84.3182 107.29Z" fill="#FFCD6D"/>
<path d="M81.0896 119.042C83.815 118.884 86.4918 118.249 88.9991 117.167C89.1248 117.124 89.2304 117.036 89.2956 116.92C89.3581 116.808 89.3751 116.676 89.343 116.552C89.3235 116.493 89.2933 116.437 89.2541 116.389C89.2129 116.341 89.1624 116.303 89.1058 116.276C89.0473 116.247 88.9839 116.23 88.9191 116.225C88.8547 116.222 88.7904 116.231 88.7293 116.252C86.302 117.301 83.7107 117.919 81.0718 118.076C80.4344 118.112 80.4582 119.078 81.0985 119.039L81.0896 119.042Z" fill="#FFCD6D"/>
<path d="M80.3014 123.104C84.021 122.27 87.7267 121.26 91.4186 120.073C92.0441 119.874 91.8514 119.078 91.2289 119.274C87.6239 120.429 84.0022 121.419 80.3637 122.245C79.7382 122.388 79.67 123.256 80.3044 123.11L80.3014 123.104Z" fill="#FFCD6D"/>
<path d="M80.5441 126.322C84.4659 125.759 88.3398 124.901 92.1327 123.754C93.2118 123.427 94.285 123.079 95.3522 122.708C95.6635 122.598 95.367 121.888 95.1476 121.962L94.9431 122.034C91.3058 123.299 87.58 124.292 83.7963 125.005C82.7112 125.203 81.6292 125.382 80.5501 125.54C80.0075 125.617 79.9898 126.411 80.5501 126.33L80.5441 126.322Z" fill="#FFCD6D"/>
<path d="M81.0375 130.122C86.2622 129.728 91.4361 128.824 96.4859 127.424C97.7607 127.073 99.0286 126.689 100.289 126.271C100.441 126.221 99.4476 125.742 99.3586 125.772C94.7967 127.229 90.1137 128.274 85.3658 128.895C83.9191 129.093 82.4734 129.239 81.0286 129.335C80.5069 129.376 80.5157 130.152 81.0286 130.11L81.0375 130.122Z" fill="#FFCD6D"/>
<path d="M81.1794 134.051C84.407 133.997 87.6279 133.739 90.8231 133.278C94.0317 132.82 97.2089 132.163 100.336 131.311C101.837 130.905 103.325 130.452 104.801 129.953C105.056 129.867 104.611 129.184 104.247 129.306C101.564 130.196 98.8357 130.942 96.0734 131.54C92.9322 132.217 89.752 132.698 86.5512 132.978C84.7546 133.135 82.9581 133.228 81.1616 133.257C81.057 133.261 80.9581 133.306 80.8867 133.383C80.8152 133.459 80.7771 133.561 80.7806 133.666C80.7842 133.771 80.8291 133.87 80.9055 133.942C80.982 134.013 81.0837 134.051 81.1883 134.048L81.1794 134.051Z" fill="#FFCD6D"/>
<path d="M82.3931 137.162C86.0455 136.811 89.7008 136.46 93.3443 135.997C96.9878 135.533 100.613 134.96 104.201 134.169C105.906 133.789 107.599 133.357 109.279 132.874C109.448 132.826 108.65 132.244 108.416 132.309L108.33 132.333C105.376 133.156 102.381 133.821 99.3565 134.327C95.7515 134.945 92.1229 135.391 88.4913 135.78C86.4516 135.994 84.409 136.19 82.3665 136.374C81.8595 136.422 81.8862 137.2 82.3991 137.15L82.3931 137.162Z" fill="#FFCD6D"/>
<path d="M83.3672 140.968C87.571 140.457 91.7807 139.949 95.9726 139.331C100.164 138.713 104.336 137.976 108.462 137.022C110.225 136.616 111.979 136.166 113.724 135.67C114.021 135.59 113.244 134.978 112.909 135.076C109.577 136.003 106.208 136.777 102.803 137.397C98.6822 138.166 94.5407 138.764 90.3814 139.304C88.0255 139.611 85.6677 139.903 83.3079 140.178C82.795 140.24 82.8543 141.031 83.3701 140.968H83.3672Z" fill="#FFCD6D"/>
<path d="M84.4392 143.503C86.5144 144.168 88.6637 144.139 90.7389 143.922C93.1106 143.675 95.4822 143.301 97.8539 142.977C102.544 142.335 107.263 141.705 111.787 140.433C113.978 139.833 116.112 139.037 118.161 138.056C118.218 138.029 118.01 137.872 117.8 137.735C117.683 137.647 117.553 137.58 117.414 137.536C113.67 139.271 109.6 140.288 105.505 141.022C103.22 141.432 100.913 141.753 98.6069 142.068C96.2352 142.391 93.8784 142.739 91.5097 143.033C89.221 143.33 86.8494 143.47 84.5429 142.736C84.0627 142.576 83.95 143.33 84.4273 143.5L84.4392 143.503Z" fill="#FFCD6D"/>
<path d="M105.462 89.9551C106.198 90.9624 106.482 92.1777 106.571 93.4079C106.642 94.7414 106.612 96.0784 106.482 97.4074C106.485 97.4577 106.497 97.507 106.518 97.553C106.538 97.5986 106.569 97.6391 106.607 97.6719C106.642 97.7075 106.686 97.734 106.734 97.7491C106.781 97.7674 106.832 97.7755 106.882 97.7729C106.933 97.7702 106.982 97.7581 107.028 97.7372C107.074 97.7163 107.115 97.6859 107.149 97.6481C107.184 97.6118 107.21 97.5682 107.226 97.5203C107.244 97.473 107.252 97.4224 107.25 97.3718C107.389 95.9896 107.416 94.5983 107.33 93.2118C107.267 91.9001 106.847 90.6308 106.115 89.5421C105.818 89.1439 105.175 89.5599 105.468 89.9611L105.462 89.9551Z" fill="#FFCD6D"/>
<path d="M109.786 88.9028V88.879L109.845 89.3574L109.573 89.5803H109.404L109.247 89.4555C109.315 89.5755 109.363 89.706 109.389 89.8418C109.445 90.0171 109.502 90.1924 109.552 90.3707C109.65 90.7005 109.733 91.0363 109.807 91.375C109.952 92.0508 110.051 92.7359 110.103 93.4253C110.21 94.8359 110.14 96.2543 109.896 97.6476C109.746 98.476 109.543 99.2938 109.288 100.096C109.122 100.613 109.961 100.717 110.124 100.203C111.165 97.069 111.302 93.7039 110.518 90.4955C110.409 90.0706 110.281 89.6516 110.136 89.2415C110.062 89.0306 109.979 88.8344 109.715 88.7899C109.599 88.7682 109.479 88.7816 109.371 88.8285C109.258 88.8774 109.162 88.9605 109.098 89.0662C109.052 89.1451 109.031 89.2365 109.039 89.3277C109.05 89.4117 109.091 89.4888 109.155 89.5446V89.5684C109.567 89.8655 110.198 89.2059 109.783 88.9177L109.786 88.9028Z" fill="#FFCD6D"/>
<path d="M112.876 88.6773C113.84 92.4177 114.094 96.3067 113.623 100.141C113.486 101.24 113.293 102.331 113.045 103.41C112.932 103.909 113.703 104.063 113.821 103.561C114.984 98.5692 114.921 93.369 113.638 88.4069C113.513 87.9196 112.748 88.1722 112.87 88.6565L112.876 88.6773Z" fill="#FFCD6D"/>
<path d="M116.57 88.5819C118.711 92.8964 118.625 97.8795 117.883 102.482C117.664 103.852 117.385 105.216 117.095 106.568C117.079 106.666 117.101 106.766 117.156 106.848C117.211 106.93 117.296 106.988 117.392 107.01C117.488 107.032 117.59 107.017 117.675 106.966C117.76 106.916 117.823 106.835 117.851 106.74C118.897 101.935 119.716 96.9345 118.592 92.0139C118.288 90.6768 117.829 89.3803 117.222 88.1511C117.166 88.0633 117.078 88.0014 116.976 87.9787C116.926 87.9671 116.874 87.9656 116.823 87.9743C116.772 87.983 116.723 88.0016 116.68 88.0292C116.596 88.0865 116.538 88.1737 116.517 88.2729C116.497 88.3748 116.515 88.4805 116.567 88.57L116.57 88.5819Z" fill="#FFCD6D"/>
<path d="M121.208 88.7577C122.351 94.1327 122.588 99.6618 121.908 105.115C121.71 106.656 121.446 108.194 121.116 109.727C121.178 109.638 121.25 109.549 121.303 109.468L121.259 109.495L121.463 109.427C121.49 109.43 121.516 109.438 121.54 109.451C121.563 109.464 121.583 109.482 121.599 109.504C121.614 109.525 121.625 109.548 121.632 109.572C121.636 109.599 121.636 109.626 121.632 109.653C121.798 109.142 120.989 108.999 120.832 109.501C120.815 109.581 120.815 109.664 120.832 109.745C120.843 109.826 120.873 109.905 120.918 109.974C120.961 110.041 121.019 110.099 121.087 110.143C121.157 110.187 121.236 110.218 121.318 110.232C121.399 110.25 121.483 110.25 121.564 110.232C121.645 110.212 121.721 110.173 121.786 110.119C121.919 109.948 121.997 109.741 122.009 109.525C122.169 108.774 122.31 108.021 122.432 107.267C122.682 105.751 122.863 104.229 122.978 102.7C123.193 99.6684 123.132 96.6241 122.797 93.604C122.611 91.8982 122.337 90.2032 121.976 88.5259C121.869 88.0237 121.087 88.2852 121.187 88.7844L121.208 88.7577Z" fill="#FFCD6D"/>
<path d="M125.602 89.5831C126.553 95.4662 126.49 101.469 125.418 107.331C125.115 109.007 124.736 110.671 124.279 112.323C124.14 112.822 124.937 112.962 125.068 112.466C126.724 106.589 127.372 100.473 126.983 94.3789C126.87 92.6832 126.673 90.9994 126.39 89.3275C126.375 89.2787 126.351 89.2333 126.319 89.1938C126.286 89.1542 126.244 89.1227 126.197 89.1017C126.15 89.0785 126.099 89.0644 126.046 89.0601C125.993 89.0595 125.94 89.0675 125.889 89.0839C125.787 89.1198 125.702 89.1916 125.649 89.2859C125.621 89.3297 125.603 89.3786 125.595 89.4296C125.587 89.4807 125.589 89.5329 125.602 89.5831Z" fill="#FFCD6D"/>
<path d="M129.614 90.5785C130.034 93.6663 130.232 96.7805 130.207 99.8969C130.182 103.038 129.935 106.174 129.465 109.281C129.195 111.052 128.855 112.818 128.446 114.579C128.321 115.11 129.151 115.265 129.282 114.724C130.738 108.521 131.306 102.142 130.971 95.7785C130.879 94.0095 130.71 92.2584 130.465 90.525C130.462 90.4718 130.449 90.4196 130.427 90.3716C130.404 90.3236 130.371 90.2808 130.331 90.2457C130.25 90.1732 130.143 90.1358 130.035 90.1417C129.978 90.1446 129.922 90.1598 129.872 90.1863C129.819 90.2102 129.771 90.2446 129.732 90.2873C129.693 90.3286 129.662 90.377 129.64 90.4299C129.619 90.4809 129.608 90.5353 129.608 90.5904L129.614 90.5785Z" fill="#FFCD6D"/>
<path d="M133.266 91.8981C133.149 91.9318 133.045 92.0022 132.971 92.099C132.897 92.1958 132.856 92.3139 132.854 92.436H132.827L132.863 92.5667C134.39 98.7662 134.609 105.217 133.506 111.506C133.191 113.295 132.773 115.065 132.252 116.804C132.227 116.877 132.218 116.954 132.228 117.03C132.238 117.105 132.265 117.178 132.308 117.241C132.388 117.352 132.509 117.427 132.643 117.449C132.785 117.478 132.932 117.453 133.057 117.38C133.182 117.308 133.276 117.192 133.322 117.054C135.735 108.989 135.94 100.421 133.915 92.2488C133.899 92.1746 133.866 92.1052 133.818 92.0459C133.771 91.9867 133.711 91.9391 133.642 91.9071C133.522 91.8591 133.388 91.856 133.266 91.8981Z" fill="#FFCD6D" stroke="#FFCD6D" stroke-width="0.5"/>
<path d="M134.654 96.4561C136.066 96.4867 137.472 96.2601 138.804 95.7876C138.86 95.7707 138.911 95.7423 138.955 95.7044C138.999 95.6661 139.034 95.6196 139.059 95.5677C139.084 95.5105 139.098 95.4489 139.101 95.3864C139.103 95.3248 139.094 95.2633 139.074 95.2052C139.055 95.1455 139.025 95.09 138.985 95.0417C138.945 94.9933 138.897 94.9521 138.843 94.9199C138.79 94.8896 138.731 94.8704 138.671 94.8634C138.613 94.8515 138.554 94.8515 138.496 94.8634C137.239 95.3147 135.911 95.5312 134.577 95.5023C133.984 95.5023 134.073 96.4294 134.657 96.4353L134.654 96.4561Z" fill="#FFCD6D"/>
<path d="M134.993 99.7253C137.468 99.9985 139.972 99.664 142.289 98.7507C142.801 98.5457 142.532 97.6988 142.019 97.9038C139.845 98.776 137.493 99.1063 135.165 98.8666C135.11 98.8547 135.054 98.8538 134.999 98.864C134.944 98.8742 134.891 98.8953 134.844 98.926C134.749 98.9884 134.681 99.0852 134.655 99.1964C134.643 99.2522 134.643 99.3099 134.655 99.3658C134.665 99.4232 134.687 99.4778 134.72 99.5262C134.75 99.5762 134.79 99.6195 134.837 99.6532C134.885 99.687 134.939 99.7105 134.996 99.7223L134.993 99.7253Z" fill="#FFCD6D"/>
<path d="M135.511 104.004C138.617 103.963 141.7 103.462 144.659 102.518C144.715 102.502 144.767 102.475 144.813 102.439C144.858 102.403 144.896 102.358 144.925 102.307C144.953 102.256 144.971 102.2 144.977 102.142C144.984 102.084 144.979 102.026 144.963 101.97C144.947 101.914 144.92 101.861 144.884 101.816C144.848 101.77 144.803 101.732 144.753 101.704C144.702 101.675 144.646 101.657 144.588 101.651C144.531 101.644 144.472 101.649 144.416 101.665C141.539 102.582 138.542 103.065 135.523 103.097C135.46 103.09 135.396 103.096 135.336 103.115C135.276 103.134 135.22 103.166 135.173 103.208C135.126 103.25 135.088 103.302 135.063 103.359C135.037 103.417 135.023 103.48 135.023 103.543C135.023 103.606 135.037 103.669 135.063 103.727C135.088 103.784 135.126 103.836 135.173 103.878C135.22 103.92 135.276 103.952 135.336 103.971C135.396 103.99 135.46 103.996 135.523 103.989L135.511 104.004Z" fill="#FFCD6D"/>
<path d="M135.315 107.539C138.614 108.124 141.992 108.101 145.282 107.471C146.225 107.292 147.158 107.065 148.078 106.79C148.638 106.618 148.339 105.762 147.781 105.929C144.681 106.856 141.439 107.21 138.212 106.975C137.294 106.905 136.379 106.789 135.473 106.627C135.358 106.613 135.243 106.643 135.15 106.711C135.056 106.779 134.993 106.88 134.971 106.993C134.95 107.107 134.972 107.224 135.034 107.322C135.095 107.419 135.192 107.489 135.304 107.518L135.315 107.539Z" fill="#FFCD6D"/>
<path d="M134.654 111.937C138.797 112.231 142.955 112.288 147.105 112.106C148.279 112.053 149.45 111.983 150.618 111.898C151.211 111.854 151.184 110.906 150.573 110.953C146.431 111.273 142.274 111.353 138.122 111.194C136.948 111.15 135.774 111.086 134.6 111.001C134.538 111.004 134.476 111.019 134.419 111.046C134.363 111.07 134.313 111.107 134.271 111.152C134.23 111.199 134.197 111.254 134.176 111.313C134.156 111.371 134.146 111.433 134.15 111.494C134.153 111.556 134.167 111.616 134.191 111.672C134.219 111.729 134.256 111.78 134.301 111.824C134.347 111.865 134.4 111.897 134.458 111.919C134.517 111.94 134.579 111.949 134.642 111.946L134.654 111.937Z" fill="#FFCD6D"/>
<path d="M133.668 116.858C138.524 117.245 143.408 117.081 148.227 116.371C149.599 116.173 150.959 115.926 152.306 115.631C152.42 115.607 152.52 115.538 152.584 115.441C152.648 115.343 152.67 115.224 152.646 115.109C152.622 114.995 152.554 114.895 152.456 114.831C152.358 114.767 152.24 114.745 152.126 114.769C147.408 115.788 142.59 116.263 137.765 116.187C136.417 116.165 135.066 116.099 133.713 115.99C133.149 115.946 133.105 116.828 133.665 116.882L133.668 116.858Z" fill="#FFCD6D"/>
<path d="M138.565 121.211C143.083 121.437 147.612 121.138 152.062 120.32C152.898 120.171 153.061 119.084 152.219 119.238C147.875 120.037 143.453 120.328 139.042 120.106C138.271 120.064 137.788 121.181 138.553 121.226L138.565 121.211Z" fill="#FFCD6D"/>
<path d="M93.597 146.757C94.0393 147.724 94.2852 148.77 94.3203 149.834C94.3554 150.897 94.1791 151.957 93.8015 152.952C93.7898 153.01 93.7898 153.069 93.8015 153.127C93.8102 153.186 93.8315 153.241 93.8638 153.291C93.8949 153.34 93.9364 153.381 93.9853 153.413C94.0339 153.445 94.0883 153.467 94.1454 153.478C94.2666 153.496 94.3901 153.468 94.4923 153.401C94.5979 153.332 94.6733 153.226 94.7027 153.103C95.4801 150.734 95.3209 148.156 94.2581 145.901C94.191 145.793 94.0845 145.717 93.9616 145.687C93.8295 145.661 93.6925 145.681 93.5732 145.743C93.4724 145.812 93.4369 145.812 93.4072 145.928C93.4287 146.209 93.4937 146.486 93.5999 146.748L93.597 146.757Z" fill="#FFCD6D"/>
<path d="M97.345 146.058C98.4389 148.785 97.7037 152.066 96.9744 155.159C96.9545 155.215 96.9474 155.275 96.9536 155.334C96.9597 155.393 96.979 155.45 97.01 155.501C97.0425 155.551 97.0862 155.593 97.1376 155.623C97.1891 155.654 97.2469 155.672 97.3065 155.676C97.3744 155.681 97.4426 155.674 97.5081 155.655C97.5782 155.637 97.6451 155.608 97.7067 155.569C97.7668 155.529 97.8207 155.48 97.8668 155.424C97.9112 155.37 97.9053 155.477 97.929 155.424C98.6939 152.176 99.521 148.548 98.3767 145.677C98.3601 145.622 98.3308 145.571 98.2912 145.529C98.2516 145.486 98.2027 145.454 98.1484 145.434C98.0358 145.389 97.9587 145.291 97.8253 145.336C97.7571 145.362 97.6326 145.356 97.5762 145.401C97.5101 145.442 97.4502 145.492 97.3984 145.55C97.3598 145.606 97.2976 145.648 97.2857 145.71C97.2926 145.828 97.3125 145.944 97.345 146.058Z" fill="#FFCD6D"/>
<path d="M101.631 145.202C102.125 149.263 102.016 153.376 101.308 157.405C101.202 158 102.135 158.145 102.248 157.548C102.974 153.453 103.093 149.272 102.601 145.142C102.598 145.009 101.631 145.202 101.631 145.202Z" fill="#FFCD6D"/>
<path d="M106.616 144.631C107.091 148.3 106.99 152.021 106.32 155.658C106.134 156.716 105.899 157.776 105.614 158.838C105.592 158.892 105.582 158.951 105.586 159.01C105.589 159.069 105.606 159.126 105.634 159.177C105.663 159.229 105.702 159.274 105.75 159.308C105.798 159.342 105.853 159.365 105.91 159.376C105.976 159.389 106.043 159.389 106.109 159.376C106.177 159.363 106.242 159.339 106.302 159.304C106.362 159.269 106.417 159.225 106.465 159.173C106.508 159.123 106.542 159.066 106.566 159.004C107.587 155.275 108.035 151.411 107.894 147.546C107.846 146.465 107.754 145.392 107.618 144.334C107.541 143.758 106.53 144.07 106.607 144.631H106.616Z" fill="#FFCD6D"/>
<path d="M110.97 143.523C112.379 147.749 112.701 152.264 111.904 156.648C111.785 157.242 111.646 157.866 111.486 158.475C111.409 158.772 111.326 159.07 111.234 159.349C111.189 159.503 111.142 159.646 111.091 159.809C111.057 159.973 111.002 160.132 110.928 160.282L111.127 160.107L111.044 160.151L111.299 160.077H111.234L111.471 160.116L111.429 160.092L111.589 160.24L111.569 160.202L111.607 160.416V160.377L111.429 160.695L111.471 160.671C111.981 160.252 111.352 159.679 110.839 160.098C110.774 160.155 110.719 160.225 110.679 160.303C110.643 160.375 110.624 160.454 110.623 160.535C110.622 160.61 110.644 160.685 110.685 160.748C110.725 160.812 110.782 160.863 110.848 160.897C110.923 160.934 111.005 160.954 111.088 160.956C111.178 160.959 111.268 160.945 111.352 160.915C111.44 160.886 111.521 160.84 111.592 160.781C111.663 160.725 111.722 160.655 111.767 160.576C111.917 160.283 112.029 159.971 112.099 159.649C112.194 159.352 112.283 159.034 112.366 158.725C112.707 157.49 112.964 156.233 113.137 154.963C113.466 152.534 113.443 150.07 113.069 147.648C112.819 146.192 112.455 144.758 111.981 143.36C111.972 143.241 110.97 143.523 110.97 143.523Z" fill="#FFCD6D"/>
<path d="M115.251 143.086C117.486 147.02 118.215 151.736 117.326 156.615C117.071 157.996 116.697 159.352 116.208 160.668L117.163 160.757L117.344 160.184C117.533 159.589 116.579 159.485 116.383 160.086L116.199 160.659C116.181 160.717 116.174 160.777 116.179 160.837C116.183 160.895 116.203 160.95 116.235 160.998C116.265 161.046 116.307 161.086 116.356 161.114C116.409 161.144 116.468 161.162 116.528 161.167C116.593 161.179 116.659 161.179 116.724 161.167C116.791 161.15 116.855 161.121 116.914 161.084C116.972 161.046 117.024 160.999 117.068 160.944C117.111 160.888 117.143 160.825 117.163 160.757C119.534 154.294 119.155 147.739 116.143 142.495C115.867 142.017 114.957 142.596 115.254 143.074L115.251 143.086Z" fill="#FFCD6D"/>
<path d="M119.914 141.066C121.632 145.829 122.488 150.86 122.443 155.923C122.431 157.377 122.349 158.83 122.197 160.282C122.198 160.341 122.211 160.399 122.236 160.452C122.259 160.504 122.293 160.551 122.336 160.588C122.38 160.627 122.432 160.657 122.488 160.675C122.544 160.695 122.603 160.702 122.663 160.695C122.785 160.683 122.898 160.627 122.983 160.538C123.065 160.452 123.112 160.337 123.113 160.217C123.667 155.079 123.31 149.883 122.061 144.87C121.713 143.479 121.293 142.107 120.804 140.76C120.611 140.231 119.728 140.52 119.914 141.057V141.066Z" fill="#FFCD6D"/>
<path d="M124.05 140.802C126.246 145.058 127.516 149.733 127.777 154.518C127.856 155.926 127.842 157.337 127.735 158.743C127.717 158.856 127.741 158.971 127.803 159.067C127.865 159.163 127.96 159.233 128.07 159.263C128.125 159.274 128.181 159.274 128.236 159.263C128.292 159.254 128.345 159.234 128.393 159.204C128.439 159.172 128.479 159.133 128.512 159.088C128.542 159.041 128.563 158.988 128.574 158.933C129.038 152.811 127.862 146.676 125.168 141.161C124.922 140.632 123.92 140.552 124.05 140.802Z" fill="#FFCD6D"/>
<path d="M130.024 142.727L130.096 142.884C131.583 146.338 132.36 150.057 132.381 153.819C132.391 154.925 132.344 156.031 132.242 157.132C132.2 157.566 132.933 157.468 132.974 157.034C133.367 153.091 132.973 149.109 131.815 145.321C131.578 144.554 131.305 143.805 131.003 143.068C130.896 142.81 129.98 142.652 130.024 142.721V142.727Z" fill="#FFCD6D"/>
<path d="M135.525 144.566C135.822 144.712 135.822 145.161 135.869 145.431C135.934 145.77 135.994 146.112 136.05 146.456C136.157 147.113 136.243 147.782 136.311 148.453C136.447 149.76 136.507 151.095 136.533 152.435C136.533 153.252 136.56 154.066 136.56 154.886C136.565 154.922 136.579 154.956 136.601 154.984C136.625 155.012 136.656 155.033 136.69 155.044C136.73 155.059 136.772 155.066 136.815 155.064C136.864 155.062 136.912 155.052 136.957 155.035C137.051 155.002 137.135 154.944 137.2 154.868C137.257 154.806 137.288 154.724 137.286 154.64C137.268 151.766 137.215 148.917 136.767 146.174C136.705 145.779 136.631 145.384 136.551 144.985C136.518 144.78 136.458 144.581 136.373 144.391C136.29 144.231 135.617 144.052 135.576 144.094C135.534 144.122 135.497 144.156 135.466 144.195C135.413 144.258 135.387 144.339 135.392 144.421C135.398 144.456 135.413 144.49 135.436 144.517C135.459 144.545 135.489 144.566 135.522 144.578L135.525 144.566Z" fill="#FFCD6D"/>
<path d="M140.116 145.345C140.372 146.282 140.535 147.243 140.602 148.212C140.632 148.69 140.644 149.172 140.632 149.659C140.632 149.915 140.614 150.167 140.596 150.423L140.564 150.788C140.567 150.902 140.554 151.017 140.525 151.127L140.653 150.996C140.636 151.004 140.621 151.016 140.608 151.029L140.795 150.961H140.762L141.02 151.014L140.996 150.999L141.097 151.124V151.097V151.258V151.249L140.937 151.457H140.964C141.002 151.431 141.036 151.399 141.065 151.362C141.092 151.327 141.113 151.286 141.124 151.243C141.133 151.203 141.133 151.161 141.124 151.121C141.114 151.082 141.097 151.046 141.073 151.014C141.044 150.982 141.008 150.956 140.969 150.937C140.929 150.919 140.886 150.909 140.842 150.907C140.746 150.899 140.65 150.923 140.57 150.976C140.499 151.154 140.483 151.35 140.525 151.537C140.6 151.589 140.692 151.611 140.783 151.599C141.216 151.561 141.242 151.163 141.272 150.889C141.343 150.238 141.373 149.583 141.361 148.928C141.342 147.762 141.19 146.601 140.907 145.469C140.89 145.398 140.074 145.211 140.116 145.368V145.345Z" fill="#FFCD6D"/>
<path d="M87.0256 145.538L95.1664 145.271L101.629 144.563L109.675 143.149L115.918 141.856L120.374 140.088L121.409 140.591L116.414 142.489L112.266 143.318L107.09 144.287L102.317 145.077L98.4541 145.526L94.2829 145.853L87.4614 146.212L87.0256 145.538Z" fill="#FFCD6D" stroke="#FFCD6D" stroke-width="0.5"/>
<path fill-rule="evenodd" clip-rule="evenodd" d="M176.82 123.771C177.023 124.029 176.98 124.402 176.723 124.606C174.141 126.659 172.13 127.48 170.357 128.037C169.958 128.162 169.579 128.273 169.214 128.379C167.949 128.747 166.854 129.066 165.667 129.797C165.072 130.162 164.683 130.917 164.403 132.065C164.209 132.857 164.088 133.736 163.96 134.669C163.903 135.084 163.844 135.509 163.777 135.942C163.566 137.306 163.272 138.723 162.641 139.865C161.991 141.042 160.979 141.933 159.39 142.196C157.912 142.439 156.632 142.763 155.456 143.089C155.104 143.187 154.758 143.286 154.418 143.383C153.633 143.608 152.877 143.824 152.143 143.998C151.308 144.195 150.207 144.783 148.984 145.61C147.776 146.428 146.505 147.441 145.341 148.435C144.18 149.428 143.134 150.393 142.378 151.112C142 151.47 141.696 151.767 141.486 151.973C141.381 152.077 141.3 152.157 141.245 152.212C141.217 152.239 141.197 152.26 141.183 152.274L141.167 152.29L141.163 152.294L140.742 151.876C140.321 151.457 140.321 151.457 140.321 151.457L140.322 151.456L140.327 151.451L140.343 151.434C140.358 151.419 140.38 151.398 140.408 151.369C140.465 151.313 140.548 151.23 140.655 151.125C140.869 150.914 141.179 150.613 141.562 150.249C142.328 149.521 143.39 148.541 144.572 147.531C145.753 146.522 147.062 145.477 148.32 144.625C149.564 143.783 150.815 143.091 151.871 142.841C152.577 142.674 153.291 142.47 154.062 142.249C154.408 142.15 154.766 142.048 155.14 141.944C156.335 141.612 157.661 141.276 159.197 141.023C160.376 140.828 161.102 140.199 161.604 139.29C162.125 138.347 162.396 137.114 162.605 135.76C162.665 135.375 162.72 134.978 162.775 134.578C162.907 133.615 163.042 132.637 163.251 131.783C163.545 130.577 164.028 129.41 165.046 128.784C166.383 127.961 167.667 127.589 168.959 127.214C169.306 127.113 169.653 127.012 170.002 126.903C171.666 126.38 173.541 125.619 175.987 123.675C176.243 123.471 176.616 123.514 176.82 123.771ZM140.742 151.876L140.321 151.457C140.09 151.69 140.091 152.067 140.324 152.298C140.556 152.529 140.932 152.527 141.163 152.294L140.742 151.876Z" fill="#FFCD6D"/>
<path fill-rule="evenodd" clip-rule="evenodd" d="M221.483 79.1897L221.261 78.5835L221.16 79.1451L221.483 79.1897Z" fill="white"/>
<path fill-rule="evenodd" clip-rule="evenodd" d="M123.316 160.443C123.035 161.123 122.76 161.788 122.491 162.418C121.848 163.927 121.216 165.288 120.541 166.378C120.378 166.641 120.459 166.987 120.722 167.15C120.984 167.313 121.329 167.232 121.492 166.969C122.213 165.803 122.872 164.376 123.52 162.859C123.805 162.19 124.085 161.512 124.367 160.828C124.457 160.611 124.547 160.392 124.638 160.173C124.2 160.271 123.759 160.361 123.316 160.443ZM134.6 156.33C134.431 157.19 134.275 158.118 134.118 159.05L134.118 159.05L134.118 159.05C134.03 159.577 133.941 160.105 133.849 160.623C133.635 161.836 133.405 163.004 133.129 164.013C132.85 165.032 132.537 165.836 132.178 166.354C132.002 166.608 132.065 166.957 132.319 167.134C132.572 167.311 132.921 167.248 133.097 166.993C133.567 166.315 133.92 165.359 134.208 164.309C134.498 163.249 134.735 162.038 134.951 160.818C135.048 160.267 135.141 159.715 135.232 159.174L135.232 159.174C135.453 157.863 135.664 156.609 135.906 155.553C135.477 155.821 135.041 156.08 134.6 156.33Z" fill="white"/>
<path fill-rule="evenodd" clip-rule="evenodd" d="M109.892 85.4873C109.895 85.1778 109.646 84.9248 109.337 84.9224C109.029 84.9199 108.776 85.1689 108.774 85.4785C108.767 86.3064 108.872 87.2159 109.027 88.1617C109.391 88.0841 109.757 88.0118 110.125 87.9452C109.979 87.0455 109.886 86.2194 109.892 85.4873ZM100.131 91.3183C100.463 91.1491 100.798 90.9847 101.135 90.8254C100.932 90.411 100.746 90.0124 100.584 89.6367C100.369 89.137 100.201 88.6889 100.092 88.306C99.981 87.9146 99.9433 87.6307 99.9565 87.4452C99.9785 87.1364 99.7465 86.8683 99.4384 86.8463C99.1304 86.8243 98.8628 87.0568 98.8409 87.3656C98.814 87.7431 98.8918 88.1742 99.0164 88.6129C99.1434 89.0601 99.3316 89.5572 99.5574 90.0813C99.7271 90.475 99.9209 90.8902 100.131 91.3183Z" fill="white"/>
<path fill-rule="evenodd" clip-rule="evenodd" d="M97.2659 92.9465C96.9143 91.3385 96.7079 89.8514 96.7652 88.5322C96.7787 88.2229 96.5394 87.9613 96.2308 87.9478C95.9223 87.9343 95.6612 88.1741 95.6478 88.4834C95.5794 90.0564 95.8507 91.7959 96.266 93.5991C96.5955 93.3763 96.9289 93.1587 97.2659 92.9465ZM88.3193 100.873C87.9624 100.037 87.6123 99.1296 87.2919 98.1983C86.4102 95.6354 85.7907 92.9966 85.841 91.2428C85.8499 90.9333 85.6068 90.6752 85.2981 90.6663C84.9894 90.6574 84.7319 90.9011 84.723 91.2105C84.6666 93.1769 85.3442 95.9758 86.2345 98.5638C86.6315 99.7176 87.0781 100.851 87.5344 101.872C87.7904 101.534 88.0521 101.201 88.3193 100.873Z" fill="white"/>
<path fill-rule="evenodd" clip-rule="evenodd" d="M76.2562 80.4731C76.3693 80.185 76.2281 79.8596 75.9407 79.7462C75.6533 79.6327 75.3286 79.7743 75.2155 80.0624C72.8978 85.9622 72.5609 93.0273 72.9383 99.1673C73.3163 105.317 74.4149 110.597 75.0129 112.963C75.6135 115.34 76.7246 118.245 78.1065 120.229C78.6899 121.067 79.356 121.792 80.0956 122.221C80.1186 121.784 80.1492 121.349 80.1873 120.917C79.8047 120.594 79.4132 120.147 79.0238 119.588C77.7472 117.754 76.6793 114.991 76.0971 112.688C75.5122 110.374 74.4274 105.164 74.0546 99.0983C73.6813 93.0236 74.0262 86.1498 76.2562 80.4731ZM83.9587 107.61C84.2653 107 84.5882 106.399 84.9269 105.809C84.9059 105.546 84.8861 105.284 84.8678 105.024C84.6427 99.4688 85.1507 93.9079 86.3786 88.4859C86.4469 88.184 86.2582 87.8837 85.957 87.8152C85.6558 87.7467 85.3562 87.9359 85.2878 88.2377C84.0375 93.7588 83.5206 99.4212 83.7506 105.078C83.7508 105.084 83.7511 105.089 83.7515 105.095C83.8105 105.934 83.8831 106.775 83.9587 107.61Z" fill="white"/>
<path d="M67.9519 12.044C64.5278 13.4643 62.3192 17.0954 63.7304 20.5274C64.8777 23.3086 68.029 25.7273 72.6241 23.8197C73.8022 23.3366 74.8703 22.6189 75.7636 21.71C75.9504 21.5495 75.9474 21.4871 75.8644 21.1841L75.2922 19.0209C75.2715 18.9674 75.058 19.0209 75.0699 19.0922C75.2033 21.4069 74.2339 22.8451 72.5589 23.5493C69.7633 24.7111 66.2977 22.9104 64.8806 19.4785C63.677 16.5695 64.6553 13.8774 67.4124 12.7334C69.4135 11.9043 71.3019 12.0291 72.6597 13.7318C72.7071 13.7942 72.8731 13.6842 72.8524 13.6307L71.8059 11.6785C71.6843 11.4319 71.6517 11.4052 71.3819 11.3665C70.4748 11.2506 69.0518 11.5923 67.9519 12.044Z" fill="white"/>
<path d="M85.031 16.3472C85.2059 17.9042 84.613 19.0809 83.4361 19.4285L81.9389 19.8713C80.7235 20.2308 80.4152 20.0793 80.1276 19.1017L78.8558 14.7901L81.0822 14.1305C82.3362 13.7591 82.9558 14.0651 83.276 15.1527C83.2967 15.2299 83.522 15.1527 83.4983 15.0873C83.3175 14.4692 83.1248 13.9552 82.9528 13.3728C82.8224 12.9241 82.7453 12.6002 82.5259 11.8485C82.5082 11.792 82.2828 11.8485 82.3006 11.9138C82.5763 12.8528 82.2235 13.3995 81.0288 13.7383L78.7461 14.4158L77.6196 10.5886C77.3231 9.59613 77.501 9.29899 78.755 8.92756L79.8964 8.58882C81.0822 8.23522 82.0872 8.77602 82.5645 10.0745C82.5823 10.131 82.8046 10.0745 82.7898 10.0092L82.0486 7.70037C82.016 7.58746 81.9597 7.54289 81.8293 7.58151L74.3378 9.81007C74.2607 9.83384 74.3378 10.0567 74.403 10.0359C75.7697 9.63179 76.0602 9.78927 76.3744 10.859L78.921 19.5385C79.2412 20.626 79.0781 20.8994 77.7115 21.3035C77.6374 21.3243 77.7115 21.5501 77.7767 21.5263L85.618 19.2086C85.8225 19.1462 85.8759 19.0482 85.8137 18.8431C85.5758 18.0134 85.3887 17.17 85.2533 16.3175C85.2445 16.2432 85.031 16.2848 85.031 16.3472Z" fill="white"/>
<path d="M101.747 15.8567C100.342 16.0974 100.096 15.922 99.8675 14.8107L97.9613 5.94703C97.7419 4.89218 98.2578 4.52373 99.5029 4.31276C99.58 4.31276 99.5414 4.0691 99.4644 4.08099C98.9841 4.16419 98.6046 4.26819 97.9139 4.37813C97.567 4.43756 97.2913 4.4435 97.155 4.46727C96.9237 4.5059 96.7429 4.71687 96.6599 5.06155L94.1192 15.3515L88.2701 7.0316C87.7217 6.25309 87.5616 6.11937 87.2147 6.1788C87.0398 6.20851 86.6633 6.31252 86.2394 6.3868C85.9429 6.43731 85.4271 6.48486 85.0031 6.55914C84.9439 6.55914 84.9854 6.79983 85.0417 6.78794C85.3455 6.72293 85.6608 6.73479 85.9589 6.82246C86.257 6.91014 86.5287 7.07085 86.7493 7.29011L88.11 16.2638C88.3176 17.595 87.947 18.216 86.8708 18.4002C86.7938 18.4002 86.8323 18.6439 86.9094 18.629C87.4104 18.5458 88.0181 18.4002 88.6733 18.2903C89.3848 18.1684 89.9659 18.106 90.5439 18.008C90.6003 18.008 90.5617 17.7673 90.5054 17.7762C89.2544 17.9901 88.7593 17.5207 88.5517 16.1865L87.3363 8.00622L93.7902 17.3156C93.8147 17.335 93.843 17.349 93.8732 17.3567C93.9035 17.3644 93.935 17.3656 93.9658 17.3603C93.9965 17.355 94.0258 17.3432 94.0518 17.3258C94.0777 17.3084 94.0997 17.2857 94.1163 17.2592L96.7696 6.33332L98.6046 15.0247C98.8537 16.133 98.6402 16.3856 97.3714 16.6025C97.3121 16.6025 97.3506 16.8462 97.4099 16.8343C97.985 16.7362 98.6728 16.5787 99.4999 16.4391C100.327 16.2994 101.16 16.1924 101.774 16.0884C101.86 16.0766 101.821 15.8448 101.747 15.8567Z" fill="white"/>
<path d="M111.183 12.7811C110.987 14.3381 110.14 15.3394 108.912 15.3989L107.353 15.4791C106.087 15.5415 105.82 15.3186 105.77 14.2905L105.547 9.80965L107.866 9.69376C109.17 9.62839 109.701 10.0711 109.757 11.2032C109.757 11.2835 109.994 11.2716 109.991 11.2032C109.959 10.5584 109.893 10.0147 109.864 9.42039C109.84 8.95091 109.843 8.61811 109.805 7.83663C109.805 7.7772 109.567 7.78909 109.57 7.83663C109.618 8.81125 109.152 9.24805 107.904 9.32233L105.533 9.44119L105.337 5.45653C105.284 4.41951 105.527 4.17288 106.819 4.10751L108.005 4.04809C109.253 3.98866 110.08 4.74934 110.258 6.12807C110.258 6.18453 110.495 6.17264 110.492 6.12807L110.311 3.70935C110.311 3.59049 110.264 3.53403 110.128 3.53998L102.34 3.89952C102.26 3.89952 102.272 4.13723 102.34 4.13128C103.763 4.06294 104.006 4.2858 104.062 5.39711L104.51 14.4391C104.566 15.5712 104.344 15.797 102.921 15.8683C102.844 15.8683 102.856 16.109 102.921 16.1031L111.085 15.696C111.299 15.696 111.382 15.6039 111.364 15.3989C111.325 14.536 111.341 13.6716 111.411 12.8108C111.414 12.7246 111.201 12.7157 111.183 12.7811Z" fill="white"/>
<path d="M121.215 2.92819C122.698 3.02624 123.543 2.03676 123.652 0.366833C123.652 0.286605 123.445 0.253919 123.439 0.313347C123.377 1.26717 122.446 2.03082 121.281 1.95356C120.116 1.87631 119.271 0.996772 119.333 0.0399784C119.333 -0.0194497 119.122 -0.0135086 119.117 0.063748C119.007 1.72179 119.754 2.83013 121.215 2.92819ZM126.946 16.1599C125.505 16.0648 125.247 15.833 125.321 14.7009L125.914 5.66782C125.988 4.55652 126.276 4.33961 127.717 4.43469C127.794 4.43469 127.809 4.20589 127.732 4.19995C127.109 4.16132 126.267 4.16429 125.41 4.10783C124.456 4.04246 123.682 3.93252 123.059 3.89092C123 3.89092 122.985 4.12269 123.045 4.12566C124.527 4.22372 124.74 4.51195 124.666 5.61137L124.645 5.90851L116.893 13.1766L117.424 5.11811C117.498 4.00681 117.768 3.7483 119.229 3.84635C119.306 3.84635 119.321 3.61755 119.244 3.61161C118.621 3.57001 117.818 3.57595 116.872 3.51355C115.998 3.4571 115.221 3.34715 114.581 3.30258C114.521 3.30258 114.507 3.53435 114.566 3.53732C116.007 3.63241 116.244 3.88498 116.17 4.99629L115.577 14.0294C115.503 15.1615 115.215 15.3576 113.774 15.2625C113.715 15.2625 113.7 15.4913 113.76 15.4972C114.382 15.5388 115.203 15.5537 116.078 15.6102C117.012 15.6726 117.788 15.7647 118.432 15.8063C118.509 15.8063 118.524 15.5775 118.447 15.5715C116.964 15.4735 116.748 15.2447 116.822 14.1126L116.843 13.8154L124.592 6.54142L124.061 14.6177C123.984 15.7498 123.738 15.9489 122.259 15.8508C122.2 15.8508 122.185 16.0826 122.244 16.0856C122.867 16.1272 123.646 16.1391 124.616 16.2015C125.473 16.2609 126.306 16.353 126.931 16.3946C126.993 16.4006 127.008 16.1658 126.946 16.1599Z" fill="white"/>
<path d="M140.443 18.7423C139.026 18.463 138.8 18.2015 139.017 17.0872L140.745 8.20273C140.959 7.10925 141.27 6.93097 142.687 7.20731C142.746 7.20731 142.791 6.98743 142.731 6.97851C142.121 6.85669 141.285 6.75269 140.425 6.58629C139.506 6.40503 138.75 6.20001 138.136 6.07818C138.062 6.07818 138.018 6.29509 138.092 6.30995C139.547 6.60709 139.725 6.90423 139.512 8.00068L138.738 11.9735L131.395 10.5353L132.169 6.56252C132.382 5.46904 132.684 5.24915 134.119 5.53144C134.196 5.54629 134.241 5.31452 134.164 5.29967C133.55 5.18081 132.756 5.08573 131.837 4.90447C130.974 4.73807 130.221 4.53007 129.586 4.40527C129.53 4.40527 129.486 4.62516 129.542 4.63704C130.959 4.91338 131.164 5.1927 130.95 6.28618L129.213 15.1588C128.996 16.2731 128.688 16.4306 127.271 16.1542C127.212 16.1542 127.167 16.3741 127.227 16.386C127.837 16.5048 128.65 16.6237 129.512 16.7931C130.431 16.9714 131.19 17.1586 131.822 17.2834C131.899 17.2982 131.943 17.0664 131.866 17.0516C130.411 16.7693 130.221 16.5138 130.437 15.3995L131.327 10.9097L138.679 12.3449L137.807 16.8376C137.588 17.949 137.318 18.1154 135.862 17.8301C135.785 17.8152 135.741 18.047 135.818 18.0619C136.432 18.1807 137.205 18.2936 138.124 18.4719C138.984 18.6413 139.799 18.8404 140.413 18.9592C140.458 18.983 140.502 18.7542 140.443 18.7423Z" fill="white"/>
<path d="M154.185 23.4515C153.408 23.1841 153.109 22.5601 152.877 20.4147L151.692 9.71765C151.692 9.63743 151.49 9.58691 151.451 9.63742L144.387 17.4909C142.982 19.0508 142.312 19.342 141.33 18.9974C141.221 18.9587 141.144 19.1786 141.253 19.2172C142.009 19.4817 142.421 19.5411 143.308 19.8472C144.265 20.18 144.719 20.4207 145.457 20.6762C145.567 20.7148 145.644 20.492 145.534 20.4534C143.91 19.8918 143.551 19.0835 144.719 17.7791L147.606 14.564L151.072 15.7526L151.665 21.0239C151.792 22.2659 151.434 22.4739 150.123 22.0193C150.014 21.9807 149.936 22.2035 150.046 22.2421C150.728 22.4769 151.253 22.5779 152.027 22.8364C152.691 23.0652 153.441 23.4069 154.122 23.6446C154.22 23.713 154.294 23.4782 154.185 23.4515ZM147.906 14.2401L150.574 11.2687L151.01 15.3277L147.906 14.2401Z" fill="white"/>
<path d="M164.795 28.2924C163.479 27.6536 163.345 27.3475 163.84 26.3283L167.789 18.1837C168.272 17.1823 168.587 17.0753 169.903 17.7142C169.974 17.7499 170.075 17.5389 170.004 17.5032C169.411 17.2209 168.699 16.9327 167.908 16.5494C167.315 16.2523 166.425 15.6907 165.924 15.453C164.083 14.5615 162.177 14.9954 161.4 16.5969C160.692 18.0559 161.285 19.5684 163.262 20.7569C162.204 20.5251 161.231 20.7896 159.577 21.9187C157.422 23.4044 156.198 24.0552 154.881 23.4609C154.831 23.4342 154.727 23.6451 154.78 23.6689L156.586 24.5603C157.01 24.7653 157.099 25.0268 160.44 22.7775C162.847 21.167 163.668 21.0451 164.789 21.5057L162.714 25.7786C162.219 26.7978 161.934 26.8959 160.638 26.2659C160.567 26.2303 160.467 26.4412 160.535 26.4769C161.098 26.7502 161.798 27.0474 162.61 27.4485C163.422 27.8497 164.092 28.2181 164.685 28.5004C164.765 28.5301 164.866 28.3281 164.795 28.2924ZM162.817 16.7366C163.467 15.4024 164.457 15.0132 165.809 15.6728C166.526 16.0235 167.155 16.6534 166.66 17.6726L164.946 21.2086C164.714 21.1382 164.488 21.0498 164.27 20.9441C162.382 20.0319 162.014 18.3738 162.817 16.7366Z" fill="white"/>
<path d="M75.535 241.752C75.4935 241.856 75.6832 241.93 75.7247 241.826C76.6378 239.493 76.8572 239.08 77.041 238.614C77.1151 238.424 77.1062 238.4 76.9313 238.332C75.6388 237.824 75.6299 237.8 76.0894 236.626L79.217 228.624C79.6024 227.641 79.9226 227.528 81.2003 228.03C81.2507 228.051 81.3308 227.843 81.2804 227.822C80.7289 227.605 79.9848 227.373 79.2259 227.073C78.3988 226.749 77.711 226.419 77.1507 226.182C77.0825 226.155 77.0025 226.363 77.0707 226.39C78.381 226.907 78.5055 227.195 78.1201 228.172L75.0014 236.139C74.5893 237.194 74.5478 237.197 73.1515 236.647L69.929 235.378C68.5831 234.849 68.5653 234.843 68.9862 233.771L72.102 225.831C72.4874 224.844 72.775 224.72 74.0853 225.237C74.1535 225.263 74.2365 225.058 74.1654 225.032C73.5991 224.806 72.8698 224.58 72.0427 224.253C71.2838 223.956 70.5812 223.62 70.0298 223.403C69.9764 223.383 69.8964 223.591 69.9468 223.611C71.2245 224.111 71.3846 224.414 70.9992 225.394L67.8656 233.393C67.4743 234.395 67.1571 234.49 65.8823 233.987C65.829 233.967 65.7489 234.172 65.7993 234.192L74.2839 237.529C76.0923 238.243 76.4481 239.419 75.535 241.752Z" fill="white"/>
<path d="M88.0476 238.85C87.4102 240.193 86.3489 240.843 85.2253 240.534L83.7964 240.139C82.6343 239.821 82.4624 239.545 82.7173 238.612L83.8468 234.493L85.9724 235.088C87.1583 235.418 87.514 235.979 87.2294 237.013C87.2086 237.088 87.4251 237.144 87.4429 237.073C87.6059 236.478 87.7067 235.973 87.8609 235.418C87.9765 234.987 88.0802 234.69 88.2759 233.973C88.2907 233.92 88.0773 233.861 88.0624 233.914C87.8164 234.805 87.265 235.061 86.1236 234.746L83.9595 234.152L84.9615 230.5C85.2224 229.552 85.5129 229.4 86.7106 229.73L87.7986 230.027C88.9429 230.342 89.4736 231.278 89.2127 232.574C89.1979 232.627 89.4113 232.687 89.4262 232.633L89.9835 230.399C90.0131 230.292 89.9835 230.229 89.8649 230.194L82.6906 228.209C82.6195 228.188 82.5602 228.402 82.6313 228.423C83.9358 228.782 84.0899 229.056 83.8172 230.075L81.5433 238.362C81.2469 239.399 80.989 239.551 79.6845 239.179C79.6134 239.159 79.5541 239.375 79.6253 239.393L87.1079 241.455C87.3065 241.512 87.4043 241.455 87.4488 241.262C87.6709 240.474 87.9412 239.7 88.2581 238.945C88.2729 238.873 88.0802 238.799 88.0476 238.85Z" fill="white"/>
<path d="M101.597 243.936C100.245 243.71 100.022 243.466 100.2 242.402L101.611 233.925C101.786 232.882 102.08 232.707 103.432 232.932C103.485 232.932 103.521 232.722 103.467 232.713C102.874 232.615 102.089 232.537 101.267 232.415C100.378 232.27 99.6666 232.092 99.0826 231.994C99.0114 231.994 98.9729 232.202 99.047 232.213C100.434 232.445 100.612 232.739 100.437 233.782L99.8059 237.571L92.7917 236.382L93.4232 232.594C93.5981 231.551 93.8768 231.334 95.2464 231.563C95.3205 231.563 95.3561 231.355 95.285 231.343C94.692 231.245 93.942 231.173 93.0645 231.028C92.2433 230.891 91.5199 230.713 90.9181 230.612C90.8648 230.612 90.8262 230.823 90.8826 230.832C92.2344 231.058 92.433 231.316 92.2611 232.362L90.847 240.836C90.6691 241.9 90.3815 242.058 89.0297 241.832C88.9734 241.832 88.9378 242.043 88.9941 242.052C89.587 242.15 90.3519 242.242 91.1731 242.379C92.0625 242.524 92.774 242.676 93.3758 242.786C93.4499 242.786 93.4855 242.578 93.4143 242.566C92.0239 242.334 91.8401 242.096 92.015 241.033L92.7295 236.748L99.7437 237.936L99.0292 242.218C98.8543 243.282 98.6023 243.445 97.2119 243.214C97.1408 243.214 97.1022 243.422 97.1764 243.433C97.7693 243.531 98.4986 243.618 99.3731 243.763C100.197 243.903 100.974 244.06 101.561 244.167C101.614 244.164 101.65 243.956 101.597 243.936Z" fill="white"/>
<path d="M117.353 244.777C115.983 244.723 115.731 244.509 115.776 243.434L116.105 234.846C116.146 233.789 116.401 233.575 117.783 233.628C117.839 233.628 117.848 233.408 117.783 233.405C117.19 233.382 116.392 233.405 115.559 233.376C114.67 233.343 113.935 233.257 113.342 233.233C113.268 233.233 113.259 233.453 113.342 233.456C114.747 233.512 114.96 233.78 114.919 234.838L114.771 238.677L107.656 238.4L107.804 234.561C107.845 233.503 108.1 233.254 109.482 233.307C109.556 233.307 109.565 233.087 109.482 233.084C108.889 233.064 108.13 233.084 107.241 233.055C106.408 233.022 105.669 232.939 105.059 232.915C105.005 232.915 104.996 233.135 105.059 233.138C106.428 233.188 106.66 233.42 106.618 234.478L106.298 243.065C106.256 244.141 106.001 244.337 104.623 244.284C104.567 244.284 104.558 244.504 104.623 244.506C105.216 244.527 105.993 244.506 106.826 244.554C107.715 244.59 108.453 244.655 109.064 244.679C109.138 244.679 109.147 244.459 109.064 244.456C107.656 244.4 107.442 244.189 107.484 243.113L107.65 238.772L114.765 239.048L114.599 243.386C114.557 244.462 114.326 244.658 112.921 244.605C112.847 244.605 112.838 244.824 112.921 244.827C113.514 244.851 114.255 244.842 115.144 244.875C115.977 244.908 116.769 244.976 117.362 245C117.4 245 117.409 244.78 117.353 244.777Z" fill="white"/>
<path d="M125.575 244.685C129.082 244.388 131.824 241.453 131.534 238.012C131.279 235.04 128.839 232.336 125.204 232.645C122.213 232.901 118.875 235.18 119.216 239.182C119.495 242.448 122.032 244.988 125.575 244.685ZM126.206 244.24C123.162 244.501 120.87 241.922 120.574 238.425C120.316 235.391 121.742 233.373 124.493 233.136C127.647 232.868 129.888 235.192 130.182 238.65C130.461 242.017 128.661 244.032 126.206 244.255V244.24Z" fill="white"/>
<path d="M138.618 230.66C135.17 231.358 132.446 234.336 133.145 237.791C133.711 240.593 136.211 243.419 140.853 242.477C142.031 242.243 143.15 241.771 144.141 241.09C144.345 240.974 144.351 240.914 144.328 240.617L144.185 238.505C144.185 238.451 143.966 238.454 143.963 238.531C143.667 240.712 142.504 241.877 140.818 242.219C138.004 242.789 135.099 240.483 134.399 237.025C133.806 234.098 135.209 231.768 137.986 231.204C139.999 230.794 141.737 231.257 142.694 233.088C142.727 233.156 142.902 233.088 142.89 233.028L142.255 231.017C142.187 230.767 142.16 230.719 141.917 230.651C141.111 230.381 139.724 230.434 138.618 230.66Z" fill="white"/>
<path d="M146.951 229.118C148.395 228.654 148.677 228.622 149.026 229.683L151.641 237.869C151.97 238.894 151.769 239.173 150.304 239.652C150.251 239.669 150.304 239.88 150.372 239.863C151.007 239.661 151.789 239.369 152.652 239.093C153.589 238.796 154.339 238.588 154.973 238.386C155.045 238.362 154.973 238.151 154.905 238.172C153.423 238.647 153.126 238.528 152.806 237.503L150.2 229.353C149.868 228.31 150.064 228.132 151.546 227.656C153.115 227.151 153.942 227.609 154.594 229.406C154.632 229.472 154.828 229.406 154.804 229.338C154.63 228.788 154.084 226.78 153.915 226.052C153.885 225.962 153.71 226.019 153.722 226.114C153.722 226.524 153.316 226.732 152.522 226.985C151.632 227.282 150.793 227.6 149.133 228.131C147.811 228.556 146.59 228.931 145.576 229.216C145.241 229.326 144.63 229.483 144.517 229.13C144.479 229.005 144.271 229.091 144.304 229.195C144.559 229.992 144.977 231.846 145.075 232.464C145.098 232.535 145.291 232.464 145.294 232.413C145.03 230.5 145.469 229.593 146.951 229.118Z" fill="white"/>
<path d="M160.85 229.1C160.426 229.29 159.987 229.528 159.527 229.774L158.063 226.506C157.63 225.54 157.743 225.204 158.991 224.64C159.059 224.61 158.97 224.408 158.902 224.438C158.377 224.672 157.716 225.032 156.862 225.415C156.121 225.751 155.439 226.009 154.897 226.241C154.832 226.271 154.92 226.473 154.989 226.443C156.222 225.888 156.515 226.001 156.948 226.966L160.464 234.805C160.906 235.785 160.761 236.071 159.536 236.626C159.468 236.656 159.56 236.861 159.628 236.828C160.168 236.588 160.861 236.234 161.606 235.898C162.35 235.562 163.527 235.155 164.084 234.903C166.109 233.991 166.903 232.044 166.038 230.116C165.089 227.988 163.115 228.063 160.85 229.1ZM163.61 234.745C162.29 235.34 161.881 235.013 161.564 234.303L159.679 230.104C159.977 229.914 160.289 229.746 160.612 229.602C162.522 228.743 164.081 228.915 165.059 231.088C165.803 232.752 165.433 233.916 163.61 234.745Z" fill="white"/>
<path fill-rule="evenodd" clip-rule="evenodd" d="M174.917 25.8586C180.38 29.1965 185.542 32.9808 190.352 37.161L191.451 36.544C186.449 32.1649 181.068 28.211 175.362 24.7385C175.221 25.1237 175.072 25.4985 174.917 25.8586ZM59.3189 22.5903C23.9325 42.3734 0 80.2665 0 123.762C0 135.418 1.71855 146.671 4.91552 157.281L6.31711 157.808C2.98224 147.052 1.18583 135.618 1.18583 123.762C1.18583 80.8169 24.7586 43.3899 59.6426 23.771C59.5277 23.388 59.4197 22.9936 59.3189 22.5903ZM27.8437 197.312L26.6856 197.776C36.5095 209.606 48.6416 219.442 62.3888 226.59C62.5023 226.195 62.6152 225.806 62.7266 225.426C49.3204 218.421 37.4733 208.829 27.8437 197.312ZM169.475 224.789C169.649 225.133 169.827 225.488 170.009 225.851C206.312 206.337 231 167.94 231 123.762C231 100.149 223.947 78.1873 211.836 59.8779L210.242 59.6281C222.598 77.9291 229.814 100.001 229.814 123.762C229.814 167.476 205.391 205.471 169.475 224.789Z" fill="white"/>
</svg>
