<svg width="913" height="147" viewBox="0 0 913 147" fill="none" xmlns="http://www.w3.org/2000/svg">
<path d="M2.95075 57.6188C2.7402 56.8175 1.92 56.3387 1.11877 56.5493C0.317549 56.7598 -0.161292 57.58 0.0492531 58.3812L2.95075 57.6188ZM125.5 137.98L110.704 128.975L110.304 146.291L125.5 137.98ZM0.0492531 58.3812C6.91403 84.505 38.7154 134.598 111.901 139.165L112.088 136.171C40.4346 131.699 9.55245 82.7414 2.95075 57.6188L0.0492531 58.3812Z" fill="#F8AD4E"/>
<path d="M456.781 132.358C455.968 132.203 455.182 132.737 455.027 133.55C454.871 134.364 455.405 135.15 456.219 135.305L456.781 132.358ZM579.5 66L566.868 77.8503L583.447 82.8649L579.5 66ZM456.219 135.305C472.385 138.393 496.975 139.065 520.318 131.679C543.706 124.279 565.912 108.758 576.992 79.4603L574.186 78.3991C563.503 106.647 542.14 121.628 519.413 128.819C496.64 136.024 472.567 135.374 456.781 132.358L456.219 135.305Z" fill="#F8AD4E"/>
<path d="M777.507 0.500016C776.679 0.496136 776.004 1.16456 776 1.99297C775.996 2.82139 776.665 3.4961 777.493 3.49998L777.507 0.500016ZM909.5 85L912.168 67.8862L896.013 74.1326L909.5 85ZM777.493 3.49998C793.816 3.57645 818.939 7.24907 843.16 17.7932C867.373 28.3336 890.563 45.6834 903.273 73.0454L905.994 71.7816C892.881 43.5519 869.005 25.7722 844.358 15.0425C819.718 4.31642 794.186 0.578147 777.507 0.500016L777.493 3.49998Z" fill="#F8AD4E"/>
</svg>
